<?xml version="1.0" encoding="UTF-8" standalone="no"?>
<!DOCTYPE svg PUBLIC "-//W3C//DTD SVG 1.1//EN"
 "http://www.w3.org/Graphics/SVG/1.1/DTD/svg11.dtd">
<!-- Generated by graphviz version 3.0.0 (20220404.1115)
 -->
<!-- Pages: 1 -->
<svg width="443pt" height="1484pt"
 viewBox="0.00 0.00 442.79 1484.00" xmlns="http://www.w3.org/2000/svg" xmlns:xlink="http://www.w3.org/1999/xlink">
<g id="graph0" class="graph" transform="scale(1 1) rotate(0) translate(4 1480)">
<polygon fill="white" stroke="transparent" points="-4,4 -4,-1480 438.79,-1480 438.79,4 -4,4"/>
<!-- D0 -->
<g id="node1" class="node">
<title>D0</title>
<path fill="none" stroke="black" d="M200.79,-1476C200.79,-1476 170.79,-1476 170.79,-1476 164.79,-1476 158.79,-1470 158.79,-1464 158.79,-1464 158.79,-1452 158.79,-1452 158.79,-1446 164.79,-1440 170.79,-1440 170.79,-1440 200.79,-1440 200.79,-1440 206.79,-1440 212.79,-1446 212.79,-1452 212.79,-1452 212.79,-1464 212.79,-1464 212.79,-1470 206.79,-1476 200.79,-1476"/>
<text text-anchor="middle" x="185.79" y="-1453.8" font-family="Times,serif" font-size="14.00">begin</text>
</g>
<!-- D4 -->
<g id="node3" class="node">
<title>D4</title>
<polygon fill="none" stroke="black" points="289.36,-1404 82.21,-1404 82.21,-1368 289.36,-1368 289.36,-1404"/>
<text text-anchor="middle" x="185.79" y="-1381.8" font-family="Times,serif" font-size="14.00">int32_t lRet=CIFX_NO_ERROR;</text>
</g>
<!-- D0&#45;&gt;D4 -->
<g id="edge22" class="edge">
<title>D0&#45;&gt;D4</title>
<path fill="none" stroke="black" d="M185.79,-1439.7C185.79,-1431.98 185.79,-1422.71 185.79,-1414.11"/>
<polygon fill="black" stroke="black" points="189.29,-1414.1 185.79,-1404.1 182.29,-1414.1 189.29,-1414.1"/>
</g>
<!-- D1 -->
<g id="node2" class="node">
<title>D1</title>
<path fill="none" stroke="black" d="M422.79,-36C422.79,-36 392.79,-36 392.79,-36 386.79,-36 380.79,-30 380.79,-24 380.79,-24 380.79,-12 380.79,-12 380.79,-6 386.79,0 392.79,0 392.79,0 422.79,0 422.79,0 428.79,0 434.79,-6 434.79,-12 434.79,-12 434.79,-24 434.79,-24 434.79,-30 428.79,-36 422.79,-36"/>
<text text-anchor="middle" x="407.79" y="-13.8" font-family="Times,serif" font-size="14.00">end</text>
</g>
<!-- D6 -->
<g id="node4" class="node">
<title>D6</title>
<polygon fill="none" stroke="black" points="228.22,-1332 143.36,-1332 143.36,-1296 228.22,-1296 228.22,-1332"/>
<text text-anchor="middle" x="185.79" y="-1309.8" font-family="Times,serif" font-size="14.00">HAL_Init();</text>
</g>
<!-- D4&#45;&gt;D6 -->
<g id="edge1" class="edge">
<title>D4&#45;&gt;D6</title>
<path fill="none" stroke="black" d="M185.79,-1367.7C185.79,-1359.98 185.79,-1350.71 185.79,-1342.11"/>
<polygon fill="black" stroke="black" points="189.29,-1342.1 185.79,-1332.1 182.29,-1342.1 189.29,-1342.1"/>
</g>
<!-- D8 -->
<g id="node5" class="node">
<title>D8</title>
<polygon fill="none" stroke="black" points="260.56,-1260 111.01,-1260 111.01,-1224 260.56,-1224 260.56,-1260"/>
<text text-anchor="middle" x="185.79" y="-1237.8" font-family="Times,serif" font-size="14.00">SystemClock_Config();</text>
</g>
<!-- D6&#45;&gt;D8 -->
<g id="edge2" class="edge">
<title>D6&#45;&gt;D8</title>
<path fill="none" stroke="black" d="M185.79,-1295.7C185.79,-1287.98 185.79,-1278.71 185.79,-1270.11"/>
<polygon fill="black" stroke="black" points="189.29,-1270.1 185.79,-1260.1 182.29,-1270.1 189.29,-1270.1"/>
</g>
<!-- D10 -->
<g id="node6" class="node">
<title>D10</title>
<polygon fill="none" stroke="black" points="244.67,-1188 126.9,-1188 126.9,-1152 244.67,-1152 244.67,-1188"/>
<text text-anchor="middle" x="185.79" y="-1165.8" font-family="Times,serif" font-size="14.00">MX_GPIO_Init();</text>
</g>
<!-- D8&#45;&gt;D10 -->
<g id="edge3" class="edge">
<title>D8&#45;&gt;D10</title>
<path fill="none" stroke="black" d="M185.79,-1223.7C185.79,-1215.98 185.79,-1206.71 185.79,-1198.11"/>
<polygon fill="black" stroke="black" points="189.29,-1198.1 185.79,-1188.1 182.29,-1198.1 189.29,-1198.1"/>
</g>
<!-- D12 -->
<g id="node7" class="node">
<title>D12</title>
<polygon fill="none" stroke="black" points="242.51,-1116 129.06,-1116 129.06,-1080 242.51,-1080 242.51,-1116"/>
<text text-anchor="middle" x="185.79" y="-1093.8" font-family="Times,serif" font-size="14.00">MX_CRC_Init();</text>
</g>
<!-- D10&#45;&gt;D12 -->
<g id="edge4" class="edge">
<title>D10&#45;&gt;D12</title>
<path fill="none" stroke="black" d="M185.79,-1151.7C185.79,-1143.98 185.79,-1134.71 185.79,-1126.11"/>
<polygon fill="black" stroke="black" points="189.29,-1126.1 185.79,-1116.1 182.29,-1126.1 189.29,-1126.1"/>
</g>
<!-- D14 -->
<g id="node8" class="node">
<title>D14</title>
<polygon fill="none" stroke="black" points="253.28,-1044 118.29,-1044 118.29,-1008 253.28,-1008 253.28,-1044"/>
<text text-anchor="middle" x="185.79" y="-1021.8" font-family="Times,serif" font-size="14.00">MX_DMA2D_Init();</text>
</g>
<!-- D12&#45;&gt;D14 -->
<g id="edge5" class="edge">
<title>D12&#45;&gt;D14</title>
<path fill="none" stroke="black" d="M185.79,-1079.7C185.79,-1071.98 185.79,-1062.71 185.79,-1054.11"/>
<polygon fill="black" stroke="black" points="189.29,-1054.1 185.79,-1044.1 182.29,-1054.1 189.29,-1054.1"/>
</g>
<!-- D16 -->
<g id="node9" class="node">
<title>D16</title>
<polygon fill="none" stroke="black" points="243.07,-972 128.5,-972 128.5,-936 243.07,-936 243.07,-972"/>
<text text-anchor="middle" x="185.79" y="-949.8" font-family="Times,serif" font-size="14.00">MX_FMC_Init();</text>
</g>
<!-- D14&#45;&gt;D16 -->
<g id="edge6" class="edge">
<title>D14&#45;&gt;D16</title>
<path fill="none" stroke="black" d="M185.79,-1007.7C185.79,-999.98 185.79,-990.71 185.79,-982.11"/>
<polygon fill="black" stroke="black" points="189.29,-982.1 185.79,-972.1 182.29,-982.1 189.29,-982.1"/>
</g>
<!-- D18 -->
<g id="node10" class="node">
<title>D18</title>
<polygon fill="none" stroke="black" points="242.5,-900 129.07,-900 129.07,-864 242.5,-864 242.5,-900"/>
<text text-anchor="middle" x="185.79" y="-877.8" font-family="Times,serif" font-size="14.00">MX_I2C3_Init();</text>
</g>
<!-- D16&#45;&gt;D18 -->
<g id="edge7" class="edge">
<title>D16&#45;&gt;D18</title>
<path fill="none" stroke="black" d="M185.79,-935.7C185.79,-927.98 185.79,-918.71 185.79,-910.11"/>
<polygon fill="black" stroke="black" points="189.29,-910.1 185.79,-900.1 182.29,-910.1 189.29,-910.1"/>
</g>
<!-- D20 -->
<g id="node11" class="node">
<title>D20</title>
<polygon fill="none" stroke="black" points="246.55,-828 125.02,-828 125.02,-792 246.55,-792 246.55,-828"/>
<text text-anchor="middle" x="185.79" y="-805.8" font-family="Times,serif" font-size="14.00">MX_LTDC_Init();</text>
</g>
<!-- D18&#45;&gt;D20 -->
<g id="edge8" class="edge">
<title>D18&#45;&gt;D20</title>
<path fill="none" stroke="black" d="M185.79,-863.7C185.79,-855.98 185.79,-846.71 185.79,-838.11"/>
<polygon fill="black" stroke="black" points="189.29,-838.1 185.79,-828.1 182.29,-838.1 189.29,-838.1"/>
</g>
<!-- D22 -->
<g id="node12" class="node">
<title>D22</title>
<polygon fill="none" stroke="black" points="242.24,-756 129.34,-756 129.34,-720 242.24,-720 242.24,-756"/>
<text text-anchor="middle" x="185.79" y="-733.8" font-family="Times,serif" font-size="14.00">MX_SPI5_Init();</text>
</g>
<!-- D20&#45;&gt;D22 -->
<g id="edge9" class="edge">
<title>D20&#45;&gt;D22</title>
<path fill="none" stroke="black" d="M185.79,-791.7C185.79,-783.98 185.79,-774.71 185.79,-766.11"/>
<polygon fill="black" stroke="black" points="189.29,-766.1 185.79,-756.1 182.29,-766.1 189.29,-766.1"/>
</g>
<!-- D24 -->
<g id="node13" class="node">
<title>D24</title>
<polygon fill="none" stroke="black" points="244.66,-684 126.91,-684 126.91,-648 244.66,-648 244.66,-684"/>
<text text-anchor="middle" x="185.79" y="-661.8" font-family="Times,serif" font-size="14.00">MX_TIM1_Init();</text>
</g>
<!-- D22&#45;&gt;D24 -->
<g id="edge10" class="edge">
<title>D22&#45;&gt;D24</title>
<path fill="none" stroke="black" d="M185.79,-719.7C185.79,-711.98 185.79,-702.71 185.79,-694.11"/>
<polygon fill="black" stroke="black" points="189.29,-694.1 185.79,-684.1 182.29,-694.1 189.29,-694.1"/>
</g>
<!-- D26 -->
<g id="node14" class="node">
<title>D26</title>
<polygon fill="none" stroke="black" points="277.51,-612 94.07,-612 94.07,-576 277.51,-576 277.51,-612"/>
<text text-anchor="middle" x="185.79" y="-589.8" font-family="Times,serif" font-size="14.00">MX_USART1_UART_Init();</text>
</g>
<!-- D24&#45;&gt;D26 -->
<g id="edge11" class="edge">
<title>D24&#45;&gt;D26</title>
<path fill="none" stroke="black" d="M185.79,-647.7C185.79,-639.98 185.79,-630.71 185.79,-622.11"/>
<polygon fill="black" stroke="black" points="189.29,-622.1 185.79,-612.1 182.29,-622.1 189.29,-622.1"/>
</g>
<!-- D28 -->
<g id="node15" class="node">
<title>D28</title>
<polygon fill="none" stroke="black" points="263.79,-540 107.78,-540 107.78,-504 263.79,-504 263.79,-540"/>
<text text-anchor="middle" x="185.79" y="-517.8" font-family="Times,serif" font-size="14.00">MX_USB_HOST_Init();</text>
</g>
<!-- D26&#45;&gt;D28 -->
<g id="edge12" class="edge">
<title>D26&#45;&gt;D28</title>
<path fill="none" stroke="black" d="M185.79,-575.7C185.79,-567.98 185.79,-558.71 185.79,-550.11"/>
<polygon fill="black" stroke="black" points="189.29,-550.1 185.79,-540.1 182.29,-550.1 189.29,-550.1"/>
</g>
<!-- D30 -->
<g id="node16" class="node">
<title>D30</title>
<polygon fill="none" stroke="black" points="244.66,-468 126.91,-468 126.91,-432 244.66,-432 244.66,-468"/>
<text text-anchor="middle" x="185.79" y="-445.8" font-family="Times,serif" font-size="14.00">MX_TIM3_Init();</text>
</g>
<!-- D28&#45;&gt;D30 -->
<g id="edge13" class="edge">
<title>D28&#45;&gt;D30</title>
<path fill="none" stroke="black" d="M185.79,-503.7C185.79,-495.98 185.79,-486.71 185.79,-478.11"/>
<polygon fill="black" stroke="black" points="189.29,-478.1 185.79,-468.1 182.29,-478.1 189.29,-478.1"/>
</g>
<!-- D32 -->
<g id="node17" class="node">
<title>D32</title>
<polygon fill="none" stroke="black" points="265.2,-396 106.37,-396 106.37,-360 265.2,-360 265.2,-396"/>
<text text-anchor="middle" x="185.79" y="-373.8" font-family="Times,serif" font-size="14.00">lRet = InitializeToolkit();</text>
</g>
<!-- D30&#45;&gt;D32 -->
<g id="edge14" class="edge">
<title>D30&#45;&gt;D32</title>
<path fill="none" stroke="black" d="M185.79,-431.7C185.79,-423.98 185.79,-414.71 185.79,-406.11"/>
<polygon fill="black" stroke="black" points="189.29,-406.1 185.79,-396.1 182.29,-406.1 189.29,-406.1"/>
</g>
<!-- D34 -->
<g id="node18" class="node">
<title>D34</title>
<polygon fill="none" stroke="black" points="185.79,-324 0.21,-306 185.79,-288 371.36,-306 185.79,-324"/>
<text text-anchor="middle" x="185.79" y="-301.8" font-family="Times,serif" font-size="14.00">(CIFX_NO_ERROR == lRet)?</text>
</g>
<!-- D32&#45;&gt;D34 -->
<g id="edge15" class="edge">
<title>D32&#45;&gt;D34</title>
<path fill="none" stroke="black" d="M185.79,-359.7C185.79,-351.98 185.79,-342.71 185.79,-334.11"/>
<polygon fill="black" stroke="black" points="189.29,-334.1 185.79,-324.1 182.29,-334.1 189.29,-334.1"/>
</g>
<!-- D39 -->
<g id="node19" class="node">
<title>D39</title>
<polygon fill="none" stroke="black" points="331.95,-252 61.62,-252 61.62,-216 331.95,-216 331.95,-252"/>
<text text-anchor="middle" x="196.79" y="-229.8" font-family="Times,serif" font-size="14.00">lRet = App_CifXApplicationDemo(&quot;cifX0&quot;);</text>
</g>
<!-- D34&#45;&gt;D39 -->
<g id="edge19" class="edge">
<title>D34:s&#45;&gt;D39:n</title>
<path fill="none" stroke="black" d="M185.79,-288C185.79,-275.32 192.1,-270.79 195.16,-262.06"/>
<polygon fill="black" stroke="black" points="198.65,-262.43 196.79,-252 191.74,-261.31 198.65,-262.43"/>
<text text-anchor="middle" x="186.19" y="-274.28" font-family="Times,serif" font-size="14.00">Y</text>
</g>
<!-- D41 -->
<g id="node20" class="node">
<title>D41</title>
<polygon fill="none" stroke="black" points="289.79,-180 252.1,-162 289.79,-144 327.47,-162 289.79,-180"/>
<text text-anchor="middle" x="289.79" y="-157.8" font-family="Times,serif" font-size="14.00">(1)?</text>
</g>
<!-- D34&#45;&gt;D41 -->
<g id="edge16" class="edge">
<title>D34:e&#45;&gt;D41:n</title>
<path fill="none" stroke="black" d="M372.79,-306C390.47,-306 402.52,-292.13 340.79,-216 325.91,-197.65 299.39,-204.57 291.84,-189.89"/>
<polygon fill="black" stroke="black" points="295.25,-189.08 289.79,-180 288.39,-190.5 295.25,-189.08"/>
<text text-anchor="middle" x="335.73" y="-203.39" font-family="Times,serif" font-size="14.00">N</text>
</g>
<!-- D39&#45;&gt;D41 -->
<g id="edge17" class="edge">
<title>D39&#45;&gt;D41</title>
<path fill="none" stroke="black" d="M219.78,-215.7C234.3,-204.77 252.97,-190.71 267.38,-179.87"/>
<polygon fill="black" stroke="black" points="269.84,-182.4 275.72,-173.59 265.63,-176.8 269.84,-182.4"/>
</g>
<!-- D41&#45;&gt;D1 -->
<g id="edge18" class="edge">
<title>D41:e&#45;&gt;D1:n</title>
<path fill="none" stroke="black" d="M328.79,-162C391.53,-162 406.34,-108.03 407.68,-46.01"/>
<polygon fill="black" stroke="black" points="411.18,-46.04 407.79,-36 404.18,-45.96 411.18,-46.04"/>
<text text-anchor="middle" x="393.99" y="-113" font-family="Times,serif" font-size="14.00">N</text>
</g>
<!-- D46 -->
<g id="node21" class="node">
<title>D46</title>
<polygon fill="none" stroke="black" points="379.62,-108 199.95,-108 199.95,-72 379.62,-72 379.62,-108"/>
<text text-anchor="middle" x="289.79" y="-85.8" font-family="Times,serif" font-size="14.00">MX_USB_HOST_Process();</text>
</g>
<!-- D41&#45;&gt;D46 -->
<g id="edge21" class="edge">
<title>D41:s&#45;&gt;D46:n</title>
<path fill="none" stroke="black" d="M289.79,-144C289.79,-132 289.79,-126.75 289.79,-118.12"/>
<polygon fill="black" stroke="black" points="293.29,-118 289.79,-108 286.29,-118 293.29,-118"/>
<text text-anchor="middle" x="284.73" y="-130.43" font-family="Times,serif" font-size="14.00">Y</text>
</g>
<!-- D46&#45;&gt;D41 -->
<g id="edge20" class="edge">
<title>D46&#45;&gt;D41</title>
<path fill="none" stroke="black" d="M289.79,-108.1C289.79,-115.79 289.79,-125.05 289.79,-133.67"/>
<polygon fill="black" stroke="black" points="286.29,-133.7 289.79,-143.7 293.29,-133.7 286.29,-133.7"/>
</g>
</g>
</svg>
