<?xml version="1.0" encoding="UTF-8" standalone="no"?>
<!DOCTYPE svg PUBLIC "-//W3C//DTD SVG 1.1//EN"
 "http://www.w3.org/Graphics/SVG/1.1/DTD/svg11.dtd">
<!-- Generated by graphviz version 3.0.0 (20220404.1115)
 -->
<!-- Pages: 1 -->
<svg width="1304pt" height="2963pt"
 viewBox="0.00 0.00 1303.77 2963.20" xmlns="http://www.w3.org/2000/svg" xmlns:xlink="http://www.w3.org/1999/xlink">
<g id="graph0" class="graph" transform="scale(1 1) rotate(0) translate(4 2959.2)">
<polygon fill="white" stroke="transparent" points="-4,4 -4,-2959.2 1299.77,-2959.2 1299.77,4 -4,4"/>
<!-- D0 -->
<g id="node1" class="node">
<title>D0</title>
<path fill="none" stroke="black" d="M363.11,-2955.2C363.11,-2955.2 333.11,-2955.2 333.11,-2955.2 327.11,-2955.2 321.11,-2949.2 321.11,-2943.2 321.11,-2943.2 321.11,-2931.2 321.11,-2931.2 321.11,-2925.2 327.11,-2919.2 333.11,-2919.2 333.11,-2919.2 363.11,-2919.2 363.11,-2919.2 369.11,-2919.2 375.11,-2925.2 375.11,-2931.2 375.11,-2931.2 375.11,-2943.2 375.11,-2943.2 375.11,-2949.2 369.11,-2955.2 363.11,-2955.2"/>
<text text-anchor="middle" x="348.11" y="-2933" font-family="Times,serif" font-size="14.00">begin</text>
</g>
<!-- D4 -->
<g id="node3" class="node">
<title>D4</title>
<polygon fill="none" stroke="black" points="500.32,-2883.2 195.9,-2883.2 195.9,-2847.2 500.32,-2847.2 500.32,-2883.2"/>
<text text-anchor="middle" x="348.11" y="-2861" font-family="Times,serif" font-size="14.00">DRV_SPI_HANDLE_T tSPISlaveHandle = {{0}};</text>
</g>
<!-- D0&#45;&gt;D4 -->
<g id="edge35" class="edge">
<title>D0&#45;&gt;D4</title>
<path fill="none" stroke="black" d="M348.11,-2918.9C348.11,-2911.18 348.11,-2901.91 348.11,-2893.31"/>
<polygon fill="black" stroke="black" points="351.61,-2893.3 348.11,-2883.3 344.61,-2893.3 351.61,-2893.3"/>
</g>
<!-- D1 -->
<g id="node2" class="node">
<title>D1</title>
<path fill="none" stroke="black" d="M1193.11,-36C1193.11,-36 1163.11,-36 1163.11,-36 1157.11,-36 1151.11,-30 1151.11,-24 1151.11,-24 1151.11,-12 1151.11,-12 1151.11,-6 1157.11,0 1163.11,0 1163.11,0 1193.11,0 1193.11,0 1199.11,0 1205.11,-6 1205.11,-12 1205.11,-12 1205.11,-24 1205.11,-24 1205.11,-30 1199.11,-36 1193.11,-36"/>
<text text-anchor="middle" x="1178.11" y="-13.8" font-family="Times,serif" font-size="14.00">end</text>
</g>
<!-- D6 -->
<g id="node4" class="node">
<title>D6</title>
<polygon fill="none" stroke="black" points="428.66,-2811.2 267.56,-2811.2 267.56,-2775.2 428.66,-2775.2 428.66,-2811.2"/>
<text text-anchor="middle" x="348.11" y="-2789" font-family="Times,serif" font-size="14.00">DRV_STATUS_E &#160;&#160;eRet;</text>
</g>
<!-- D4&#45;&gt;D6 -->
<g id="edge1" class="edge">
<title>D4&#45;&gt;D6</title>
<path fill="none" stroke="black" d="M348.11,-2846.9C348.11,-2839.18 348.11,-2829.91 348.11,-2821.31"/>
<polygon fill="black" stroke="black" points="351.61,-2821.3 348.11,-2811.3 344.61,-2821.3 351.61,-2821.3"/>
</g>
<!-- D8 -->
<g id="node5" class="node">
<title>D8</title>
<polygon fill="none" stroke="black" points="448.15,-2739.2 248.07,-2739.2 248.07,-2703.2 448.15,-2703.2 448.15,-2739.2"/>
<text text-anchor="middle" x="348.11" y="-2717" font-family="Times,serif" font-size="14.00">uint32_t &#160;&#160;&#160;&#160;ulUserParam = 5678;</text>
</g>
<!-- D6&#45;&gt;D8 -->
<g id="edge2" class="edge">
<title>D6&#45;&gt;D8</title>
<path fill="none" stroke="black" d="M348.11,-2774.9C348.11,-2767.18 348.11,-2757.91 348.11,-2749.31"/>
<polygon fill="black" stroke="black" points="351.61,-2749.3 348.11,-2739.3 344.61,-2749.3 351.61,-2749.3"/>
</g>
<!-- D10 -->
<g id="node6" class="node">
<title>D10</title>
<polygon fill="none" stroke="black" points="456.76,-2667.2 239.46,-2667.2 239.46,-2631.2 456.76,-2631.2 456.76,-2667.2"/>
<text text-anchor="middle" x="348.11" y="-2645" font-family="Times,serif" font-size="14.00">uint32_t &#160;&#160;&#160;&#160;ulTransactionCount = 0;</text>
</g>
<!-- D8&#45;&gt;D10 -->
<g id="edge3" class="edge">
<title>D8&#45;&gt;D10</title>
<path fill="none" stroke="black" d="M348.11,-2702.9C348.11,-2695.18 348.11,-2685.91 348.11,-2677.31"/>
<polygon fill="black" stroke="black" points="351.61,-2677.3 348.11,-2667.3 344.61,-2677.3 351.61,-2677.3"/>
</g>
<!-- D12 -->
<g id="node7" class="node">
<title>D12</title>
<polygon fill="none" stroke="black" points="518.41,-2595.2 177.81,-2595.2 177.81,-2559.2 518.41,-2559.2 518.41,-2595.2"/>
<text text-anchor="middle" x="348.11" y="-2573" font-family="Times,serif" font-size="14.00">DRV_DIO_ChannelOutReset(DRV_DIO_ID_MMIO_7);</text>
</g>
<!-- D10&#45;&gt;D12 -->
<g id="edge4" class="edge">
<title>D10&#45;&gt;D12</title>
<path fill="none" stroke="black" d="M348.11,-2630.9C348.11,-2623.18 348.11,-2613.91 348.11,-2605.31"/>
<polygon fill="black" stroke="black" points="351.61,-2605.3 348.11,-2595.3 344.61,-2605.3 351.61,-2605.3"/>
</g>
<!-- D14 -->
<g id="node8" class="node">
<title>D14</title>
<polygon fill="none" stroke="black" points="610.06,-2523.2 86.16,-2523.2 86.16,-2487.2 610.06,-2487.2 610.06,-2523.2"/>
<text text-anchor="middle" x="348.11" y="-2501" font-family="Times,serif" font-size="14.00">tSPISlaveHandle.tConfiguration.eOperationMode &#160;&#160;&#160;&#160;= DRV_OPERATION_MODE_IRQ;</text>
</g>
<!-- D12&#45;&gt;D14 -->
<g id="edge5" class="edge">
<title>D12&#45;&gt;D14</title>
<path fill="none" stroke="black" d="M348.11,-2558.9C348.11,-2551.18 348.11,-2541.91 348.11,-2533.31"/>
<polygon fill="black" stroke="black" points="351.61,-2533.3 348.11,-2523.3 344.61,-2533.3 351.61,-2533.3"/>
</g>
<!-- D16 -->
<g id="node9" class="node">
<title>D16</title>
<polygon fill="none" stroke="black" points="539.21,-2451.2 157.01,-2451.2 157.01,-2415.2 539.21,-2415.2 539.21,-2451.2"/>
<text text-anchor="middle" x="348.11" y="-2429" font-family="Times,serif" font-size="14.00">tSPISlaveHandle.tConfiguration.eFSS &#160;&#160;&#160;&#160;&#160;&#160;&#160;&#160;&#160;= DRV_SPI_FSS_0;</text>
</g>
<!-- D14&#45;&gt;D16 -->
<g id="edge6" class="edge">
<title>D14&#45;&gt;D16</title>
<path fill="none" stroke="black" d="M348.11,-2486.9C348.11,-2479.18 348.11,-2469.91 348.11,-2461.31"/>
<polygon fill="black" stroke="black" points="351.61,-2461.3 348.11,-2451.3 344.61,-2461.3 351.61,-2461.3"/>
</g>
<!-- D18 -->
<g id="node10" class="node">
<title>D18</title>
<polygon fill="none" stroke="black" points="614.97,-2379.2 81.25,-2379.2 81.25,-2343.2 614.97,-2343.2 614.97,-2379.2"/>
<text text-anchor="middle" x="348.11" y="-2357" font-family="Times,serif" font-size="14.00">tSPISlaveHandle.tConfiguration.eFSSStatic &#160;&#160;&#160;&#160;&#160;&#160;= DRV_SPI_FSS_STATIC_HARDWARE;</text>
</g>
<!-- D16&#45;&gt;D18 -->
<g id="edge7" class="edge">
<title>D16&#45;&gt;D18</title>
<path fill="none" stroke="black" d="M348.11,-2414.9C348.11,-2407.18 348.11,-2397.91 348.11,-2389.31"/>
<polygon fill="black" stroke="black" points="351.61,-2389.3 348.11,-2379.3 344.61,-2389.3 351.61,-2389.3"/>
</g>
<!-- D20 -->
<g id="node11" class="node">
<title>D20</title>
<polygon fill="none" stroke="black" points="562.98,-2307.2 133.24,-2307.2 133.24,-2271.2 562.98,-2271.2 562.98,-2307.2"/>
<text text-anchor="middle" x="348.11" y="-2285" font-family="Times,serif" font-size="14.00">tSPISlaveHandle.tConfiguration.uMode.value &#160;&#160;&#160;&#160;&#160;= DRV_SPI_MODE_3;</text>
</g>
<!-- D18&#45;&gt;D20 -->
<g id="edge8" class="edge">
<title>D18&#45;&gt;D20</title>
<path fill="none" stroke="black" d="M348.11,-2342.9C348.11,-2335.18 348.11,-2325.91 348.11,-2317.31"/>
<polygon fill="black" stroke="black" points="351.61,-2317.3 348.11,-2307.3 344.61,-2317.3 351.61,-2317.3"/>
</g>
<!-- D22 -->
<g id="node12" class="node">
<title>D22</title>
<polygon fill="none" stroke="black" points="589.47,-2235.2 106.75,-2235.2 106.75,-2199.2 589.47,-2199.2 589.47,-2235.2"/>
<text text-anchor="middle" x="348.11" y="-2213" font-family="Times,serif" font-size="14.00">tSPISlaveHandle.tConfiguration.eFILTER &#160;&#160;&#160;&#160;&#160;&#160;&#160;= DRV_SPI_FILTER_INACTIVE;</text>
</g>
<!-- D20&#45;&gt;D22 -->
<g id="edge9" class="edge">
<title>D20&#45;&gt;D22</title>
<path fill="none" stroke="black" d="M348.11,-2270.9C348.11,-2263.18 348.11,-2253.91 348.11,-2245.31"/>
<polygon fill="black" stroke="black" points="351.61,-2245.3 348.11,-2235.3 344.61,-2245.3 351.61,-2245.3"/>
</g>
<!-- D24 -->
<g id="node13" class="node">
<title>D24</title>
<polygon fill="none" stroke="black" points="613.03,-2163.2 83.19,-2163.2 83.19,-2127.2 613.03,-2127.2 613.03,-2163.2"/>
<text text-anchor="middle" x="348.11" y="-2141" font-family="Times,serif" font-size="14.00">tSPISlaveHandle.tConfiguration.eSlaveSigEarly &#160;&#160;&#160;&#160;= DRV_SPI_SLV_SIG_NOT_EARLY;</text>
</g>
<!-- D22&#45;&gt;D24 -->
<g id="edge10" class="edge">
<title>D22&#45;&gt;D24</title>
<path fill="none" stroke="black" d="M348.11,-2198.9C348.11,-2191.18 348.11,-2181.91 348.11,-2173.31"/>
<polygon fill="black" stroke="black" points="351.61,-2173.3 348.11,-2163.3 344.61,-2173.3 351.61,-2173.3"/>
</g>
<!-- D26 -->
<g id="node14" class="node">
<title>D26</title>
<polygon fill="none" stroke="black" points="606.29,-2091.2 89.93,-2091.2 89.93,-2055.2 606.29,-2055.2 606.29,-2091.2"/>
<text text-anchor="middle" x="348.11" y="-2069" font-family="Times,serif" font-size="14.00">tSPISlaveHandle.tConfiguration.eDataSize &#160;&#160;&#160;&#160;&#160;&#160;= DRV_SPI_DATA_SIZE_SELECT_8b;</text>
</g>
<!-- D24&#45;&gt;D26 -->
<g id="edge11" class="edge">
<title>D24&#45;&gt;D26</title>
<path fill="none" stroke="black" d="M348.11,-2126.9C348.11,-2119.18 348.11,-2109.91 348.11,-2101.31"/>
<polygon fill="black" stroke="black" points="351.61,-2101.3 348.11,-2091.3 344.61,-2101.3 351.61,-2101.3"/>
</g>
<!-- D28 -->
<g id="node15" class="node">
<title>D28</title>
<polygon fill="none" stroke="black" points="603.67,-2019.2 92.55,-2019.2 92.55,-1983.2 603.67,-1983.2 603.67,-2019.2"/>
<text text-anchor="middle" x="348.11" y="-1997" font-family="Times,serif" font-size="14.00">tSPISlaveHandle.tConfiguration.eRxFiFoWm &#160;&#160;&#160;&#160;&#160;&#160;= DRV_SPI_FIFO_WM_DEFAULT;</text>
</g>
<!-- D26&#45;&gt;D28 -->
<g id="edge12" class="edge">
<title>D26&#45;&gt;D28</title>
<path fill="none" stroke="black" d="M348.11,-2054.9C348.11,-2047.18 348.11,-2037.91 348.11,-2029.31"/>
<polygon fill="black" stroke="black" points="351.61,-2029.3 348.11,-2019.3 344.61,-2029.3 351.61,-2029.3"/>
</g>
<!-- D30 -->
<g id="node16" class="node">
<title>D30</title>
<polygon fill="none" stroke="black" points="603.39,-1947.2 92.83,-1947.2 92.83,-1911.2 603.39,-1911.2 603.39,-1947.2"/>
<text text-anchor="middle" x="348.11" y="-1925" font-family="Times,serif" font-size="14.00">tSPISlaveHandle.tConfiguration.eTxFiFoWm &#160;&#160;&#160;&#160;&#160;&#160;= DRV_SPI_FIFO_WM_DEFAULT;</text>
</g>
<!-- D28&#45;&gt;D30 -->
<g id="edge13" class="edge">
<title>D28&#45;&gt;D30</title>
<path fill="none" stroke="black" d="M348.11,-1982.9C348.11,-1975.18 348.11,-1965.91 348.11,-1957.31"/>
<polygon fill="black" stroke="black" points="351.61,-1957.3 348.11,-1947.3 344.61,-1957.3 351.61,-1957.3"/>
</g>
<!-- D32 -->
<g id="node17" class="node">
<title>D32</title>
<polygon fill="none" stroke="black" points="606.86,-1875.2 89.36,-1875.2 89.36,-1839.2 606.86,-1839.2 606.86,-1875.2"/>
<text text-anchor="middle" x="348.11" y="-1853" font-family="Times,serif" font-size="14.00">tSPISlaveHandle.tConfiguration.eFrequency &#160;&#160;&#160;&#160;&#160;&#160;= DRV_SPI_FREQUENCY_1_56MHz;</text>
</g>
<!-- D30&#45;&gt;D32 -->
<g id="edge14" class="edge">
<title>D30&#45;&gt;D32</title>
<path fill="none" stroke="black" d="M348.11,-1910.9C348.11,-1903.18 348.11,-1893.91 348.11,-1885.31"/>
<polygon fill="black" stroke="black" points="351.61,-1885.3 348.11,-1875.3 344.61,-1885.3 351.61,-1885.3"/>
</g>
<!-- D34 -->
<g id="node18" class="node">
<title>D34</title>
<polygon fill="none" stroke="black" points="599.86,-1803.2 96.36,-1803.2 96.36,-1767.2 599.86,-1767.2 599.86,-1803.2"/>
<text text-anchor="middle" x="348.11" y="-1781" font-family="Times,serif" font-size="14.00">tSPISlaveHandle.tConfiguration.eBehaviour &#160;&#160;&#160;&#160;&#160;&#160;= DRV_SPI_BEHAVIOUR_SLAVE;</text>
</g>
<!-- D32&#45;&gt;D34 -->
<g id="edge15" class="edge">
<title>D32&#45;&gt;D34</title>
<path fill="none" stroke="black" d="M348.11,-1838.9C348.11,-1831.18 348.11,-1821.91 348.11,-1813.31"/>
<polygon fill="black" stroke="black" points="351.61,-1813.3 348.11,-1803.3 344.61,-1813.3 351.61,-1813.3"/>
</g>
<!-- D36 -->
<g id="node19" class="node">
<title>D36</title>
<polygon fill="none" stroke="black" points="592.97,-1731.2 103.25,-1731.2 103.25,-1695.2 592.97,-1695.2 592.97,-1731.2"/>
<text text-anchor="middle" x="348.11" y="-1709" font-family="Times,serif" font-size="14.00">tSPISlaveHandle.tConfiguration.eSPIDeviceID &#160;&#160;&#160;&#160;&#160;= DRV_SPI_DEVICE_ID_SPI0;</text>
</g>
<!-- D34&#45;&gt;D36 -->
<g id="edge16" class="edge">
<title>D34&#45;&gt;D36</title>
<path fill="none" stroke="black" d="M348.11,-1766.9C348.11,-1759.18 348.11,-1749.91 348.11,-1741.31"/>
<polygon fill="black" stroke="black" points="351.61,-1741.3 348.11,-1731.3 344.61,-1741.3 351.61,-1741.3"/>
</g>
<!-- D38 -->
<g id="node20" class="node">
<title>D38</title>
<polygon fill="none" stroke="black" points="674.23,-1659.2 21.99,-1659.2 21.99,-1623.2 674.23,-1623.2 674.23,-1659.2"/>
<text text-anchor="middle" x="348.11" y="-1637" font-family="Times,serif" font-size="14.00">tSPISlaveHandle.tConfiguration.fnCompleteCallback &#160;&#160;= (DRV_CALLBACK_F) TransactionCompleteCallback;</text>
</g>
<!-- D36&#45;&gt;D38 -->
<g id="edge17" class="edge">
<title>D36&#45;&gt;D38</title>
<path fill="none" stroke="black" d="M348.11,-1694.9C348.11,-1687.18 348.11,-1677.91 348.11,-1669.31"/>
<polygon fill="black" stroke="black" points="351.61,-1669.3 348.11,-1659.3 344.61,-1669.3 351.61,-1669.3"/>
</g>
<!-- D40 -->
<g id="node21" class="node">
<title>D40</title>
<polygon fill="none" stroke="black" points="594.8,-1587.2 101.42,-1587.2 101.42,-1551.2 594.8,-1551.2 594.8,-1587.2"/>
<text text-anchor="middle" x="348.11" y="-1565" font-family="Times,serif" font-size="14.00">tSPISlaveHandle.tConfiguration.pCompleteCallbackHandle= (void*)&amp;ulUserParam;</text>
</g>
<!-- D38&#45;&gt;D40 -->
<g id="edge18" class="edge">
<title>D38&#45;&gt;D40</title>
<path fill="none" stroke="black" d="M348.11,-1622.9C348.11,-1615.18 348.11,-1605.91 348.11,-1597.31"/>
<polygon fill="black" stroke="black" points="351.61,-1597.3 348.11,-1587.3 344.61,-1597.3 351.61,-1597.3"/>
</g>
<!-- D42 -->
<g id="node22" class="node">
<title>D42</title>
<polygon fill="none" stroke="black" points="348.11,-1515.2 -0.11,-1497.2 348.11,-1479.2 696.33,-1497.2 348.11,-1515.2"/>
<text text-anchor="middle" x="348.11" y="-1493" font-family="Times,serif" font-size="14.00">(DRV_OK != (eRet = DRV_SPI_Init(&amp;tSPISlaveHandle)))?</text>
</g>
<!-- D40&#45;&gt;D42 -->
<g id="edge19" class="edge">
<title>D40&#45;&gt;D42</title>
<path fill="none" stroke="black" d="M348.11,-1550.9C348.11,-1543.18 348.11,-1533.91 348.11,-1525.31"/>
<polygon fill="black" stroke="black" points="351.61,-1525.3 348.11,-1515.3 344.61,-1525.3 351.61,-1525.3"/>
</g>
<!-- D47 -->
<g id="node23" class="node">
<title>D47</title>
<polygon fill="none" stroke="black" points="490.45,-1443.2 379.77,-1443.2 379.77,-1407.2 490.45,-1407.2 490.45,-1443.2"/>
<text text-anchor="middle" x="435.11" y="-1421" font-family="Times,serif" font-size="14.00">Error_Handler();</text>
</g>
<!-- D42&#45;&gt;D47 -->
<g id="edge23" class="edge">
<title>D42:s&#45;&gt;D47:n</title>
<path fill="none" stroke="black" d="M348.11,-1479.2C348.11,-1441.44 418.95,-1476.59 432.78,-1453.06"/>
<polygon fill="black" stroke="black" points="436.22,-1453.74 435.11,-1443.2 429.41,-1452.13 436.22,-1453.74"/>
<text text-anchor="middle" x="386.62" y="-1465.4" font-family="Times,serif" font-size="14.00">Y</text>
</g>
<!-- D49 -->
<g id="node24" class="node">
<title>D49</title>
<polygon fill="none" stroke="black" points="772.69,-1371.2 445.53,-1371.2 445.53,-1335.2 772.69,-1335.2 772.69,-1371.2"/>
<text text-anchor="middle" x="609.11" y="-1349" font-family="Times,serif" font-size="14.00">DRV_DIO_ChannelOutSet(DRV_DIO_ID_MMIO_7);</text>
</g>
<!-- D42&#45;&gt;D49 -->
<g id="edge20" class="edge">
<title>D42:e&#45;&gt;D49:n</title>
<path fill="none" stroke="black" d="M697.11,-1497.2C705.12,-1497.2 698.98,-1486.68 696.11,-1479.2 675.3,-1425.03 616.57,-1431.76 609.76,-1381.31"/>
<polygon fill="black" stroke="black" points="613.24,-1380.96 609.11,-1371.2 606.26,-1381.4 613.24,-1380.96"/>
<text text-anchor="middle" x="649.06" y="-1437.11" font-family="Times,serif" font-size="14.00">N</text>
</g>
<!-- D47&#45;&gt;D49 -->
<g id="edge21" class="edge">
<title>D47&#45;&gt;D49</title>
<path fill="none" stroke="black" d="M477.68,-1407.08C501.67,-1397.42 531.84,-1385.29 557.21,-1375.08"/>
<polygon fill="black" stroke="black" points="558.71,-1378.25 566.68,-1371.27 556.1,-1371.75 558.71,-1378.25"/>
</g>
<!-- D54 -->
<g id="node26" class="node">
<title>D54</title>
<polygon fill="none" stroke="black" points="679.94,-1299.2 538.28,-1299.2 538.28,-1263.2 679.94,-1263.2 679.94,-1299.2"/>
<text text-anchor="middle" x="609.11" y="-1277" font-family="Times,serif" font-size="14.00">volatile uint32_t i = 0;</text>
</g>
<!-- D49&#45;&gt;D54 -->
<g id="edge22" class="edge">
<title>D49&#45;&gt;D54</title>
<path fill="none" stroke="black" d="M609.11,-1334.9C609.11,-1327.18 609.11,-1317.91 609.11,-1309.31"/>
<polygon fill="black" stroke="black" points="612.61,-1309.3 609.11,-1299.3 605.61,-1309.3 612.61,-1309.3"/>
</g>
<!-- D53 -->
<g id="node25" class="node">
<title>D53</title>
<polygon fill="none" stroke="black" points="609.11,-1227.2 521.52,-1209.2 609.11,-1191.2 696.7,-1209.2 609.11,-1227.2"/>
<text text-anchor="middle" x="609.11" y="-1205" font-family="Times,serif" font-size="14.00">i &lt; 1000000?</text>
</g>
<!-- D56 -->
<g id="node28" class="node">
<title>D56</title>
<polygon fill="none" stroke="black" points="636.11,-1155.2 582.11,-1155.2 582.11,-1119.2 636.11,-1119.2 636.11,-1155.2"/>
<text text-anchor="middle" x="609.11" y="-1133" font-family="Times,serif" font-size="14.00">;</text>
</g>
<!-- D53&#45;&gt;D56 -->
<g id="edge27" class="edge">
<title>D53:s&#45;&gt;D56:n</title>
<path fill="none" stroke="black" d="M609.11,-1191.2C609.11,-1179.2 609.11,-1173.95 609.11,-1165.33"/>
<polygon fill="black" stroke="black" points="612.61,-1165.2 609.11,-1155.2 605.61,-1165.2 612.61,-1165.2"/>
<text text-anchor="middle" x="604.05" y="-1177.63" font-family="Times,serif" font-size="14.00">Y</text>
</g>
<!-- D58 -->
<g id="node29" class="node">
<title>D58</title>
<polygon fill="none" stroke="black" points="994.41,-1155.2 653.81,-1155.2 653.81,-1119.2 994.41,-1119.2 994.41,-1155.2"/>
<text text-anchor="middle" x="824.11" y="-1133" font-family="Times,serif" font-size="14.00">DRV_DIO_ChannelOutReset(DRV_DIO_ID_MMIO_7);</text>
</g>
<!-- D53&#45;&gt;D58 -->
<g id="edge24" class="edge">
<title>D53:e&#45;&gt;D58:n</title>
<path fill="none" stroke="black" d="M698.11,-1209.2C725.24,-1209.2 803.99,-1190.53 820.89,-1164.93"/>
<polygon fill="black" stroke="black" points="824.29,-1165.79 824.11,-1155.2 817.65,-1163.59 824.29,-1165.79"/>
<text text-anchor="middle" x="760.35" y="-1200.21" font-family="Times,serif" font-size="14.00">N</text>
</g>
<!-- D54&#45;&gt;D53 -->
<g id="edge25" class="edge">
<title>D54&#45;&gt;D53</title>
<path fill="none" stroke="black" d="M609.11,-1262.9C609.11,-1255.18 609.11,-1245.91 609.11,-1237.31"/>
<polygon fill="black" stroke="black" points="612.61,-1237.3 609.11,-1227.3 605.61,-1237.3 612.61,-1237.3"/>
</g>
<!-- D55 -->
<g id="node27" class="node">
<title>D55</title>
<polygon fill="none" stroke="black" points="609.11,-1083.2 555.11,-1083.2 555.11,-1047.2 609.11,-1047.2 609.11,-1083.2"/>
<text text-anchor="middle" x="582.11" y="-1061" font-family="Times,serif" font-size="14.00">i++</text>
</g>
<!-- D55&#45;&gt;D53 -->
<g id="edge28" class="edge">
<title>D55&#45;&gt;D53</title>
<path fill="none" stroke="black" d="M576.46,-1083.32C571.35,-1101.54 565.67,-1131 573.11,-1155.2 576.48,-1166.16 582.97,-1176.88 589.52,-1185.79"/>
<polygon fill="black" stroke="black" points="586.81,-1187.99 595.73,-1193.71 592.32,-1183.68 586.81,-1187.99"/>
</g>
<!-- D56&#45;&gt;D55 -->
<g id="edge26" class="edge">
<title>D56&#45;&gt;D55</title>
<path fill="none" stroke="black" d="M602.44,-1118.9C599.4,-1111.01 595.73,-1101.5 592.35,-1092.75"/>
<polygon fill="black" stroke="black" points="595.57,-1091.37 588.71,-1083.3 589.04,-1093.89 595.57,-1091.37"/>
</g>
<!-- D60 -->
<g id="node30" class="node">
<title>D60</title>
<polygon fill="none" stroke="black" points="824.11,-1083.2 786.42,-1065.2 824.11,-1047.2 861.8,-1065.2 824.11,-1083.2"/>
<text text-anchor="middle" x="824.11" y="-1061" font-family="Times,serif" font-size="14.00">(1)?</text>
</g>
<!-- D58&#45;&gt;D60 -->
<g id="edge29" class="edge">
<title>D58&#45;&gt;D60</title>
<path fill="none" stroke="black" d="M824.11,-1118.9C824.11,-1111.18 824.11,-1101.91 824.11,-1093.31"/>
<polygon fill="black" stroke="black" points="827.61,-1093.3 824.11,-1083.3 820.61,-1093.3 827.61,-1093.3"/>
</g>
<!-- D65 -->
<g id="node31" class="node">
<title>D65</title>
<polygon fill="none" stroke="black" points="553.34,-1011.2 364.88,-1011.2 364.88,-975.2 553.34,-975.2 553.34,-1011.2"/>
<text text-anchor="middle" x="459.11" y="-989" font-family="Times,serif" font-size="14.00">bTransactionComplete = false;</text>
</g>
<!-- D60&#45;&gt;D65 -->
<g id="edge53" class="edge">
<title>D60:s&#45;&gt;D65:n</title>
<path fill="none" stroke="black" d="M824.11,-1047.2C824.11,-969.52 492.53,-1081.26 461.44,-1021.33"/>
<polygon fill="black" stroke="black" points="464.76,-1020.16 459.11,-1011.2 457.94,-1021.73 464.76,-1020.16"/>
<text text-anchor="middle" x="636.65" y="-1033.39" font-family="Times,serif" font-size="14.00">Y</text>
</g>
<!-- D104 -->
<g id="node47" class="node">
<title>D104</title>
<polygon fill="none" stroke="black" points="1295.93,-919.6 1060.29,-919.6 1060.29,-883.6 1295.93,-883.6 1295.93,-919.6"/>
<text text-anchor="middle" x="1178.11" y="-897.4" font-family="Times,serif" font-size="14.00">DRV_SPI_DeInit(&amp;tSPISlaveHandle);</text>
</g>
<!-- D60&#45;&gt;D104 -->
<g id="edge30" class="edge">
<title>D60:e&#45;&gt;D104:n</title>
<path fill="none" stroke="black" d="M863.11,-1065.2C936.67,-1065.2 1157.05,-1003.56 1176.71,-930.92"/>
<polygon fill="black" stroke="black" points="1180.23,-930.98 1178.11,-920.6 1173.29,-930.04 1180.23,-930.98"/>
<text text-anchor="middle" x="1035.09" y="-1029.49" font-family="Times,serif" font-size="14.00">N</text>
</g>
<!-- D67 -->
<g id="node32" class="node">
<title>D67</title>
<polygon fill="none" stroke="black" points="588.29,-939.3 257.93,-939.3 257.93,-863.9 588.29,-863.9 588.29,-939.3"/>
<text text-anchor="middle" x="423.11" y="-922.6" font-family="Times,serif" font-size="14.00">eRet = DRV_SPI_TransmitReceive(&amp;tSPISlaveHandle,</text>
<text text-anchor="middle" x="423.11" y="-905.8" font-family="Times,serif" font-size="14.00"> &#160;&#160;&#160;&#160;&#160;&#160;&#160;&#160;&#160;&#160;&#160;&#160;&#160;&#160;&#160;&#160;&#160;aSlaveTxBuffer,</text>
<text text-anchor="middle" x="423.11" y="-889" font-family="Times,serif" font-size="14.00"> &#160;&#160;&#160;&#160;&#160;&#160;&#160;&#160;&#160;&#160;&#160;&#160;&#160;&#160;&#160;&#160;&#160;aSlaveRxBuffer,</text>
<text text-anchor="middle" x="423.11" y="-872.2" font-family="Times,serif" font-size="14.00"> &#160;&#160;&#160;&#160;&#160;&#160;&#160;&#160;&#160;&#160;&#160;&#160;&#160;&#160;&#160;&#160;&#160;16);</text>
</g>
<!-- D65&#45;&gt;D67 -->
<g id="edge31" class="edge">
<title>D65&#45;&gt;D67</title>
<path fill="none" stroke="black" d="M452.17,-974.92C449.13,-967.37 445.42,-958.12 441.67,-948.78"/>
<polygon fill="black" stroke="black" points="444.9,-947.45 437.93,-939.48 438.41,-950.06 444.9,-947.45"/>
</g>
<!-- D69 -->
<g id="node33" class="node">
<title>D69</title>
<polygon fill="none" stroke="black" points="774.11,-828 644.09,-810 774.11,-792 904.13,-810 774.11,-828"/>
<text text-anchor="middle" x="774.11" y="-805.8" font-family="Times,serif" font-size="14.00">(DRV_OK != eRet)?</text>
</g>
<!-- D67&#45;&gt;D69 -->
<g id="edge32" class="edge">
<title>D67&#45;&gt;D69</title>
<path fill="none" stroke="black" d="M566.63,-863.96C621.24,-850.02 680.12,-834.99 721.15,-824.52"/>
<polygon fill="black" stroke="black" points="722.1,-827.89 730.93,-822.02 720.37,-821.11 722.1,-827.89"/>
</g>
<!-- D74 -->
<g id="node34" class="node">
<title>D74</title>
<polygon fill="none" stroke="black" points="648.32,-756 583.9,-756 583.9,-720 648.32,-720 648.32,-756"/>
<text text-anchor="middle" x="616.11" y="-733.8" font-family="Times,serif" font-size="14.00">continue</text>
</g>
<!-- D69&#45;&gt;D74 -->
<g id="edge34" class="edge">
<title>D69:s&#45;&gt;D74:n</title>
<path fill="none" stroke="black" d="M774.11,-792C774.11,-723.78 632.33,-817.13 617.38,-765.94"/>
<polygon fill="black" stroke="black" points="620.85,-765.48 616.11,-756 613.91,-766.36 620.85,-765.48"/>
<text text-anchor="middle" x="690.17" y="-778.17" font-family="Times,serif" font-size="14.00">Y</text>
</g>
<!-- D76 -->
<g id="node35" class="node">
<title>D76</title>
<polygon fill="none" stroke="black" points="826.11,-756 666.2,-738 826.11,-720 986.02,-738 826.11,-756"/>
<text text-anchor="middle" x="826.11" y="-733.8" font-family="Times,serif" font-size="14.00">(!bTransactionComplete)?</text>
</g>
<!-- D69&#45;&gt;D76 -->
<g id="edge33" class="edge">
<title>D69:e&#45;&gt;D76:n</title>
<path fill="none" stroke="black" d="M905.11,-810C913.12,-810 908.61,-798.63 904.11,-792 884.91,-763.75 837.65,-787.79 827.89,-765.84"/>
<polygon fill="black" stroke="black" points="831.33,-765.22 826.11,-756 824.45,-766.46 831.33,-765.22"/>
<text text-anchor="middle" x="861.04" y="-764.04" font-family="Times,serif" font-size="14.00">N</text>
</g>
<!-- D74&#45;&gt;D60 -->
<g id="edge36" class="edge">
<title>D74&#45;&gt;D60</title>
<path fill="none" stroke="black" d="M617.41,-756.15C619.34,-774.65 624.01,-804.59 635.11,-828 678.79,-920.16 764.95,-1008.41 804.01,-1045.66"/>
<polygon fill="black" stroke="black" points="801.93,-1048.5 811.6,-1052.81 806.73,-1043.41 801.93,-1048.5"/>
</g>
<!-- D76&#45;&gt;D76 -->
<g id="edge38" class="edge">
<title>D76:s&#45;&gt;D76:n</title>
<path fill="none" stroke="black" d="M826.11,-720C885.35,-702 1003.82,-702 1003.82,-738 1003.82,-772.1 897.51,-773.9 835.95,-758.69"/>
<polygon fill="black" stroke="black" points="836.68,-755.27 826.11,-756 834.83,-762.02 836.68,-755.27"/>
<text text-anchor="middle" x="821.1" y="-707.39" font-family="Times,serif" font-size="14.00">Y</text>
</g>
<!-- D82 -->
<g id="node36" class="node">
<title>D82</title>
<polygon fill="none" stroke="black" points="931.49,-684 784.73,-684 784.73,-648 931.49,-648 931.49,-684"/>
<text text-anchor="middle" x="858.11" y="-661.8" font-family="Times,serif" font-size="14.00">ulTransactionCount++;</text>
</g>
<!-- D76&#45;&gt;D82 -->
<g id="edge37" class="edge">
<title>D76:e&#45;&gt;D82:n</title>
<path fill="none" stroke="black" d="M987.11,-738C995.12,-738 991.12,-726.25 986.11,-720 951.59,-676.96 869.96,-734.41 859.27,-694.15"/>
<polygon fill="black" stroke="black" points="862.72,-693.54 858.11,-684 855.77,-694.33 862.72,-693.54"/>
<text text-anchor="middle" x="916.71" y="-692.27" font-family="Times,serif" font-size="14.00">N</text>
</g>
<!-- D84 -->
<g id="node37" class="node">
<title>D84</title>
<polygon fill="none" stroke="black" points="948.69,-612 621.53,-612 621.53,-576 948.69,-576 948.69,-612"/>
<text text-anchor="middle" x="785.11" y="-589.8" font-family="Times,serif" font-size="14.00">DRV_DIO_ChannelOutSet(DRV_DIO_ID_MMIO_7);</text>
</g>
<!-- D82&#45;&gt;D84 -->
<g id="edge39" class="edge">
<title>D82&#45;&gt;D84</title>
<path fill="none" stroke="black" d="M840.07,-647.7C831.05,-639.05 819.99,-628.45 810.17,-619.03"/>
<polygon fill="black" stroke="black" points="812.59,-616.5 802.95,-612.1 807.74,-621.55 812.59,-616.5"/>
</g>
<!-- D89 -->
<g id="node39" class="node">
<title>D89</title>
<polygon fill="none" stroke="black" points="745.94,-540 604.28,-540 604.28,-504 745.94,-504 745.94,-540"/>
<text text-anchor="middle" x="675.11" y="-517.8" font-family="Times,serif" font-size="14.00">volatile uint32_t i = 0;</text>
</g>
<!-- D84&#45;&gt;D89 -->
<g id="edge40" class="edge">
<title>D84&#45;&gt;D89</title>
<path fill="none" stroke="black" d="M758.2,-575.88C743.95,-566.81 726.26,-555.55 710.87,-545.76"/>
<polygon fill="black" stroke="black" points="712.44,-542.61 702.12,-540.19 708.68,-548.51 712.44,-542.61"/>
</g>
<!-- D88 -->
<g id="node38" class="node">
<title>D88</title>
<polygon fill="none" stroke="black" points="647.11,-468 566.18,-450 647.11,-432 728.04,-450 647.11,-468"/>
<text text-anchor="middle" x="647.11" y="-445.8" font-family="Times,serif" font-size="14.00">i &lt; 100000?</text>
</g>
<!-- D91 -->
<g id="node41" class="node">
<title>D91</title>
<polygon fill="none" stroke="black" points="646.11,-396 592.11,-396 592.11,-360 646.11,-360 646.11,-396"/>
<text text-anchor="middle" x="619.11" y="-373.8" font-family="Times,serif" font-size="14.00">;</text>
</g>
<!-- D88&#45;&gt;D91 -->
<g id="edge44" class="edge">
<title>D88:s&#45;&gt;D91:n</title>
<path fill="none" stroke="black" d="M647.11,-432C647.11,-415.85 629.33,-415.45 622.11,-405.7"/>
<polygon fill="black" stroke="black" points="625.41,-404.52 619.11,-396 618.72,-406.59 625.41,-404.52"/>
<text text-anchor="middle" x="627.88" y="-418.1" font-family="Times,serif" font-size="14.00">Y</text>
</g>
<!-- D93 -->
<g id="node42" class="node">
<title>D93</title>
<polygon fill="none" stroke="black" points="1004.41,-396 663.81,-396 663.81,-360 1004.41,-360 1004.41,-396"/>
<text text-anchor="middle" x="834.11" y="-373.8" font-family="Times,serif" font-size="14.00">DRV_DIO_ChannelOutReset(DRV_DIO_ID_MMIO_7);</text>
</g>
<!-- D88&#45;&gt;D93 -->
<g id="edge41" class="edge">
<title>D88:e&#45;&gt;D93:n</title>
<path fill="none" stroke="black" d="M729.11,-450C778,-450 826.93,-448.68 833.39,-406.06"/>
<polygon fill="black" stroke="black" points="836.89,-406.22 834.11,-396 829.91,-405.72 836.89,-406.22"/>
<text text-anchor="middle" x="792.12" y="-448.21" font-family="Times,serif" font-size="14.00">N</text>
</g>
<!-- D89&#45;&gt;D88 -->
<g id="edge42" class="edge">
<title>D89&#45;&gt;D88</title>
<path fill="none" stroke="black" d="M668.19,-503.7C664.86,-495.37 660.8,-485.23 657.14,-476.08"/>
<polygon fill="black" stroke="black" points="660.34,-474.66 653.38,-466.67 653.84,-477.26 660.34,-474.66"/>
</g>
<!-- D90 -->
<g id="node40" class="node">
<title>D90</title>
<polygon fill="none" stroke="black" points="619.11,-324 565.11,-324 565.11,-288 619.11,-288 619.11,-324"/>
<text text-anchor="middle" x="592.11" y="-301.8" font-family="Times,serif" font-size="14.00">i++</text>
</g>
<!-- D90&#45;&gt;D88 -->
<g id="edge45" class="edge">
<title>D90&#45;&gt;D88</title>
<path fill="none" stroke="black" d="M585.26,-324.29C579.01,-342.91 572.27,-372.95 583.11,-396 589.99,-410.64 603.12,-422.62 615.71,-431.47"/>
<polygon fill="black" stroke="black" points="613.97,-434.51 624.25,-437.08 617.82,-428.66 613.97,-434.51"/>
</g>
<!-- D91&#45;&gt;D90 -->
<g id="edge43" class="edge">
<title>D91&#45;&gt;D90</title>
<path fill="none" stroke="black" d="M612.44,-359.7C609.4,-351.81 605.73,-342.3 602.35,-333.55"/>
<polygon fill="black" stroke="black" points="605.57,-332.17 598.71,-324.1 599.04,-334.69 605.57,-332.17"/>
</g>
<!-- D98 -->
<g id="node44" class="node">
<title>D98</title>
<polygon fill="none" stroke="black" points="891.95,-324 796.27,-324 796.27,-288 891.95,-288 891.95,-324"/>
<text text-anchor="middle" x="844.11" y="-301.8" font-family="Times,serif" font-size="14.00">uint32_t i = 0;</text>
</g>
<!-- D93&#45;&gt;D98 -->
<g id="edge46" class="edge">
<title>D93&#45;&gt;D98</title>
<path fill="none" stroke="black" d="M836.58,-359.7C837.68,-351.98 839.01,-342.71 840.24,-334.11"/>
<polygon fill="black" stroke="black" points="843.72,-334.5 841.67,-324.1 836.79,-333.51 843.72,-334.5"/>
</g>
<!-- D97 -->
<g id="node43" class="node">
<title>D97</title>
<polygon fill="none" stroke="black" points="854.11,-252 800.31,-234 854.11,-216 907.91,-234 854.11,-252"/>
<text text-anchor="middle" x="854.11" y="-229.8" font-family="Times,serif" font-size="14.00">i &lt; 16?</text>
</g>
<!-- D97&#45;&gt;D60 -->
<g id="edge47" class="edge">
<title>D97:e&#45;&gt;D60:n</title>
<path fill="none" stroke="black" d="M909.11,-234C992.94,-234 1032.11,-293.17 1032.11,-377 1032.11,-902.6 1032.11,-902.6 1032.11,-902.6 1032.11,-959.41 853.84,-1119.27 827.38,-1094"/>
<polygon fill="black" stroke="black" points="830.59,-1092.58 824.11,-1084.2 823.95,-1094.79 830.59,-1092.58"/>
<text text-anchor="middle" x="1027.05" y="-841.1" font-family="Times,serif" font-size="14.00">N</text>
</g>
<!-- D102 -->
<g id="node46" class="node">
<title>D102</title>
<polygon fill="none" stroke="black" points="1130.3,-180 657.92,-180 657.92,-144 1130.3,-144 1130.3,-180"/>
<text text-anchor="middle" x="894.11" y="-157.8" font-family="Times,serif" font-size="14.00">aSlaveTxBuffer[i] = aSlaveRxBuffer[i] + (uint8_t)(ulTransactionCount &amp; 0xFF);</text>
</g>
<!-- D97&#45;&gt;D102 -->
<g id="edge52" class="edge">
<title>D97:s&#45;&gt;D102:n</title>
<path fill="none" stroke="black" d="M854.11,-216C854.11,-196.19 881.54,-200.91 890.97,-189.53"/>
<polygon fill="black" stroke="black" points="894.31,-190.59 894.11,-180 887.66,-188.4 894.31,-190.59"/>
<text text-anchor="middle" x="869.33" y="-202.12" font-family="Times,serif" font-size="14.00">Y</text>
</g>
<!-- D98&#45;&gt;D97 -->
<g id="edge48" class="edge">
<title>D98&#45;&gt;D97</title>
<path fill="none" stroke="black" d="M846.58,-287.7C847.7,-279.87 849.05,-270.44 850.29,-261.73"/>
<polygon fill="black" stroke="black" points="853.79,-262.02 851.74,-251.62 846.86,-261.03 853.79,-262.02"/>
</g>
<!-- D99 -->
<g id="node45" class="node">
<title>D99</title>
<polygon fill="none" stroke="black" points="789.11,-108 735.11,-108 735.11,-72 789.11,-72 789.11,-108"/>
<text text-anchor="middle" x="762.11" y="-85.8" font-family="Times,serif" font-size="14.00">i++</text>
</g>
<!-- D99&#45;&gt;D97 -->
<g id="edge50" class="edge">
<title>D99&#45;&gt;D97</title>
<path fill="none" stroke="black" d="M734.96,-95.26C707.94,-101.1 667.88,-114.46 649.11,-144 640.53,-157.5 639.31,-167.35 649.11,-180 668.14,-204.57 751.48,-219.81 805.86,-227.32"/>
<polygon fill="black" stroke="black" points="805.61,-230.82 815.99,-228.68 806.54,-223.88 805.61,-230.82"/>
</g>
<!-- D102&#45;&gt;D99 -->
<g id="edge49" class="edge">
<title>D102&#45;&gt;D99</title>
<path fill="none" stroke="black" d="M861.82,-143.88C842.58,-133.67 818.12,-120.7 798.23,-110.16"/>
<polygon fill="black" stroke="black" points="799.65,-106.94 789.17,-105.35 796.37,-113.13 799.65,-106.94"/>
</g>
<!-- D104&#45;&gt;D1 -->
<g id="edge51" class="edge">
<title>D104&#45;&gt;D1</title>
<path fill="none" stroke="black" d="M1178.11,-883.14C1178.11,-853.51 1178.11,-791.46 1178.11,-739 1178.11,-739 1178.11,-739 1178.11,-161 1178.11,-121 1178.11,-74.65 1178.11,-46.08"/>
<polygon fill="black" stroke="black" points="1181.61,-46.05 1178.11,-36.05 1174.61,-46.05 1181.61,-46.05"/>
</g>
</g>
</svg>
