<?xml version="1.0" encoding="UTF-8" standalone="no"?>
<!DOCTYPE svg PUBLIC "-//W3C//DTD SVG 1.1//EN"
 "http://www.w3.org/Graphics/SVG/1.1/DTD/svg11.dtd">
<!-- Generated by graphviz version 3.0.0 (20220404.1115)
 -->
<!-- Pages: 1 -->
<svg width="2559pt" height="1196pt"
 viewBox="0.00 0.00 2558.59 1196.00" xmlns="http://www.w3.org/2000/svg" xmlns:xlink="http://www.w3.org/1999/xlink">
<g id="graph0" class="graph" transform="scale(1 1) rotate(0) translate(4 1192)">
<polygon fill="white" stroke="transparent" points="-4,4 -4,-1192 2554.59,-1192 2554.59,4 -4,4"/>
<!-- D0 -->
<g id="node1" class="node">
<title>D0</title>
<path fill="none" stroke="black" d="M451.36,-1188C451.36,-1188 421.36,-1188 421.36,-1188 415.36,-1188 409.36,-1182 409.36,-1176 409.36,-1176 409.36,-1164 409.36,-1164 409.36,-1158 415.36,-1152 421.36,-1152 421.36,-1152 451.36,-1152 451.36,-1152 457.36,-1152 463.36,-1158 463.36,-1164 463.36,-1164 463.36,-1176 463.36,-1176 463.36,-1182 457.36,-1188 451.36,-1188"/>
<text text-anchor="middle" x="436.36" y="-1165.8" font-family="Times,serif" font-size="14.00">begin</text>
</g>
<!-- D4 -->
<g id="node3" class="node">
<title>D4</title>
<polygon fill="none" stroke="black" points="529.94,-1116 342.79,-1116 342.79,-1080 529.94,-1080 529.94,-1116"/>
<text text-anchor="middle" x="436.36" y="-1093.8" font-family="Times,serif" font-size="14.00">int sensor1_value_filtered = 0;</text>
</g>
<!-- D0&#45;&gt;D4 -->
<g id="edge15" class="edge">
<title>D0&#45;&gt;D4</title>
<path fill="none" stroke="black" d="M436.36,-1151.7C436.36,-1143.98 436.36,-1134.71 436.36,-1126.11"/>
<polygon fill="black" stroke="black" points="439.86,-1126.1 436.36,-1116.1 432.86,-1126.1 439.86,-1126.1"/>
</g>
<!-- D1 -->
<g id="node2" class="node">
<title>D1</title>
<path fill="none" stroke="black" d="M1275.36,-36C1275.36,-36 1245.36,-36 1245.36,-36 1239.36,-36 1233.36,-30 1233.36,-24 1233.36,-24 1233.36,-12 1233.36,-12 1233.36,-6 1239.36,0 1245.36,0 1245.36,0 1275.36,0 1275.36,0 1281.36,0 1287.36,-6 1287.36,-12 1287.36,-12 1287.36,-24 1287.36,-24 1287.36,-30 1281.36,-36 1275.36,-36"/>
<text text-anchor="middle" x="1260.36" y="-13.8" font-family="Times,serif" font-size="14.00">end</text>
</g>
<!-- D6 -->
<g id="node4" class="node">
<title>D6</title>
<polygon fill="none" stroke="black" points="529.94,-1044 342.79,-1044 342.79,-1008 529.94,-1008 529.94,-1044"/>
<text text-anchor="middle" x="436.36" y="-1021.8" font-family="Times,serif" font-size="14.00">int sensor2_value_filtered = 0;</text>
</g>
<!-- D4&#45;&gt;D6 -->
<g id="edge1" class="edge">
<title>D4&#45;&gt;D6</title>
<path fill="none" stroke="black" d="M436.36,-1079.7C436.36,-1071.98 436.36,-1062.71 436.36,-1054.11"/>
<polygon fill="black" stroke="black" points="439.86,-1054.1 436.36,-1044.1 432.86,-1054.1 439.86,-1054.1"/>
</g>
<!-- D13 -->
<g id="node5" class="node">
<title>D13</title>
<polygon fill="none" stroke="black" points="436.36,-972 105.05,-954 436.36,-936 767.67,-954 436.36,-972"/>
<text text-anchor="middle" x="436.36" y="-949.8" font-family="Times,serif" font-size="14.00">(MO_SensorType) == SensorType_1Operation_Sensor1?</text>
</g>
<!-- D6&#45;&gt;D13 -->
<g id="edge3" class="edge">
<title>D6&#45;&gt;D13</title>
<path fill="none" stroke="black" d="M436.36,-1007.7C436.36,-999.98 436.36,-990.71 436.36,-982.11"/>
<polygon fill="black" stroke="black" points="439.86,-982.1 436.36,-972.1 432.86,-982.1 439.86,-982.1"/>
</g>
<!-- D14 -->
<g id="node6" class="node">
<title>D14</title>
<polygon fill="none" stroke="black" points="911.36,-900 580.05,-882 911.36,-864 1242.67,-882 911.36,-900"/>
<text text-anchor="middle" x="911.36" y="-877.8" font-family="Times,serif" font-size="14.00">(MO_SensorType) == SensorType_1Operation_Sensor2?</text>
</g>
<!-- D13&#45;&gt;D14 -->
<g id="edge13" class="edge">
<title>D13:e&#45;&gt;D14:n</title>
<path fill="none" stroke="black" d="M769.36,-954C799.69,-954 890.14,-937.66 908.2,-909.86"/>
<polygon fill="black" stroke="black" points="911.64,-910.59 911.36,-900 904.98,-908.46 911.64,-910.59"/>
<text text-anchor="middle" x="839" y="-946.38" font-family="Times,serif" font-size="14.00">N</text>
</g>
<!-- D21 -->
<g id="node9" class="node">
<title>D21</title>
<polygon fill="none" stroke="black" points="519.46,-900 153.27,-900 153.27,-864 519.46,-864 519.46,-900"/>
<text text-anchor="middle" x="336.36" y="-877.8" font-family="Times,serif" font-size="14.00">sensor1_value_filtered = getADS1252(SENSOR_SENSOR1);</text>
</g>
<!-- D13&#45;&gt;D21 -->
<g id="edge10" class="edge">
<title>D13:s&#45;&gt;D21:n</title>
<path fill="none" stroke="black" d="M436.36,-936C436.36,-892.82 352.81,-937.97 338.45,-909.97"/>
<polygon fill="black" stroke="black" points="341.84,-909.07 336.36,-900 334.99,-910.51 341.84,-909.07"/>
<text text-anchor="middle" x="381.32" y="-922.2" font-family="Times,serif" font-size="14.00">Y</text>
</g>
<!-- D15 -->
<g id="node7" class="node">
<title>D15</title>
<polygon fill="none" stroke="black" points="1482.36,-828 1123.42,-810 1482.36,-792 1841.3,-810 1482.36,-828"/>
<text text-anchor="middle" x="1482.36" y="-805.8" font-family="Times,serif" font-size="14.00">(MO_SensorType) == SensorType_2Operation_Sensor1High?</text>
</g>
<!-- D14&#45;&gt;D15 -->
<g id="edge12" class="edge">
<title>D14:e&#45;&gt;D15:n</title>
<path fill="none" stroke="black" d="M1244.36,-882C1268.72,-882 1441.42,-860.3 1476.25,-836.23"/>
<polygon fill="black" stroke="black" points="1479.21,-838.11 1482.36,-828 1473.59,-833.94 1479.21,-838.11"/>
<text text-anchor="middle" x="1360.22" y="-870.83" font-family="Times,serif" font-size="14.00">N</text>
</g>
<!-- D36 -->
<g id="node16" class="node">
<title>D36</title>
<polygon fill="none" stroke="black" points="1094.46,-828 728.27,-828 728.27,-792 1094.46,-792 1094.46,-828"/>
<text text-anchor="middle" x="911.36" y="-805.8" font-family="Times,serif" font-size="14.00">sensor2_value_filtered = getADS1252(SENSOR_SENSOR2);</text>
</g>
<!-- D14&#45;&gt;D36 -->
<g id="edge22" class="edge">
<title>D14:s&#45;&gt;D36:n</title>
<path fill="none" stroke="black" d="M911.36,-864C911.36,-852 911.36,-846.75 911.36,-838.12"/>
<polygon fill="black" stroke="black" points="914.86,-838 911.36,-828 907.86,-838 914.86,-838"/>
<text text-anchor="middle" x="906.31" y="-850.43" font-family="Times,serif" font-size="14.00">Y</text>
</g>
<!-- D16 -->
<g id="node8" class="node">
<title>D16</title>
<polygon fill="none" stroke="black" points="2042.36,-756 1683.42,-738 2042.36,-720 2401.3,-738 2042.36,-756"/>
<text text-anchor="middle" x="2042.36" y="-733.8" font-family="Times,serif" font-size="14.00">(MO_SensorType) == SensorType_2Operation_Sensor2High?</text>
</g>
<!-- D15&#45;&gt;D16 -->
<g id="edge11" class="edge">
<title>D15:e&#45;&gt;D16:n</title>
<path fill="none" stroke="black" d="M1842.36,-810C1884.8,-810 2018.96,-803.23 2039.67,-766.11"/>
<polygon fill="black" stroke="black" points="2043.17,-766.56 2042.36,-756 2036.4,-764.76 2043.17,-766.56"/>
<text text-anchor="middle" x="1944.17" y="-806.17" font-family="Times,serif" font-size="14.00">N</text>
</g>
<!-- D51 -->
<g id="node23" class="node">
<title>D51</title>
<polygon fill="none" stroke="black" points="1665.46,-756 1299.27,-756 1299.27,-720 1665.46,-720 1665.46,-756"/>
<text text-anchor="middle" x="1482.36" y="-733.8" font-family="Times,serif" font-size="14.00">sensor1_value_filtered = getADS1252(SENSOR_SENSOR1);</text>
</g>
<!-- D15&#45;&gt;D51 -->
<g id="edge30" class="edge">
<title>D15:s&#45;&gt;D51:n</title>
<path fill="none" stroke="black" d="M1482.36,-792C1482.36,-780 1482.36,-774.75 1482.36,-766.12"/>
<polygon fill="black" stroke="black" points="1485.86,-766 1482.36,-756 1478.86,-766 1485.86,-766"/>
<text text-anchor="middle" x="1477.31" y="-778.43" font-family="Times,serif" font-size="14.00">Y</text>
</g>
<!-- D75 -->
<g id="node34" class="node">
<title>D75</title>
<polygon fill="none" stroke="black" points="2219.46,-684 1853.27,-684 1853.27,-648 2219.46,-648 2219.46,-684"/>
<text text-anchor="middle" x="2036.36" y="-661.8" font-family="Times,serif" font-size="14.00">sensor1_value_filtered = getADS1252(SENSOR_SENSOR1);</text>
</g>
<!-- D16&#45;&gt;D75 -->
<g id="edge42" class="edge">
<title>D16:s&#45;&gt;D75:n</title>
<path fill="none" stroke="black" d="M2042.36,-720C2042.36,-707.83 2038.99,-702.79 2037.3,-694.19"/>
<polygon fill="black" stroke="black" points="2040.76,-693.64 2036.36,-684 2033.79,-694.28 2040.76,-693.64"/>
<text text-anchor="middle" x="2034.38" y="-706.43" font-family="Times,serif" font-size="14.00">Y</text>
</g>
<!-- D99 -->
<g id="node45" class="node">
<title>D99</title>
<polygon fill="none" stroke="black" points="2550.82,-684 2275.9,-684 2275.9,-648 2550.82,-648 2550.82,-684"/>
<text text-anchor="middle" x="2413.36" y="-661.8" font-family="Times,serif" font-size="14.00">_Sensor1ResultVol = _Sensor2ResultVol = 0;</text>
</g>
<!-- D16&#45;&gt;D99 -->
<g id="edge54" class="edge">
<title>D16:e&#45;&gt;D99:n</title>
<path fill="none" stroke="black" d="M2402.36,-738C2423.51,-738 2416.34,-716.01 2413.99,-694.24"/>
<polygon fill="black" stroke="black" points="2417.46,-693.77 2413.36,-684 2410.48,-694.19 2417.46,-693.77"/>
<text text-anchor="middle" x="2411.11" y="-714.7" font-family="Times,serif" font-size="14.00">N</text>
</g>
<!-- D23 -->
<g id="node10" class="node">
<title>D23</title>
<polygon fill="none" stroke="black" points="293.36,-828 75.9,-810 293.36,-792 510.83,-810 293.36,-828"/>
<text text-anchor="middle" x="293.36" y="-805.8" font-family="Times,serif" font-size="14.00">(sensor1_value_filtered &gt; 2000000)?</text>
</g>
<!-- D21&#45;&gt;D23 -->
<g id="edge23" class="edge">
<title>D21&#45;&gt;D23</title>
<path fill="none" stroke="black" d="M325.73,-863.7C320.66,-855.44 314.49,-845.39 308.9,-836.3"/>
<polygon fill="black" stroke="black" points="311.79,-834.31 303.57,-827.62 305.82,-837.98 311.79,-834.31"/>
</g>
<!-- D26 -->
<g id="node11" class="node">
<title>D26</title>
<polygon fill="none" stroke="black" points="328.59,-756 0.14,-756 0.14,-720 328.59,-720 328.59,-756"/>
<text text-anchor="middle" x="164.36" y="-733.8" font-family="Times,serif" font-size="14.00">_Sensor1Value = sensor1_value_filtered / 1100 * 1000;</text>
</g>
<!-- D23&#45;&gt;D26 -->
<g id="edge17" class="edge">
<title>D23:s&#45;&gt;D26:n</title>
<path fill="none" stroke="black" d="M293.36,-792C293.36,-736.43 180.93,-805.12 165.99,-766.06"/>
<polygon fill="black" stroke="black" points="169.42,-765.31 164.36,-756 162.51,-766.43 169.42,-765.31"/>
<text text-anchor="middle" x="223.88" y="-778.19" font-family="Times,serif" font-size="14.00">Y</text>
</g>
<!-- D28 -->
<g id="node12" class="node">
<title>D28</title>
<polygon fill="none" stroke="black" points="675.59,-756 347.14,-756 347.14,-720 675.59,-720 675.59,-756"/>
<text text-anchor="middle" x="511.36" y="-733.8" font-family="Times,serif" font-size="14.00">_Sensor1Value = sensor1_value_filtered * 1000 / 1100;</text>
</g>
<!-- D23&#45;&gt;D28 -->
<g id="edge19" class="edge">
<title>D23:e&#45;&gt;D28:n</title>
<path fill="none" stroke="black" d="M512.36,-810C533.08,-810 517.28,-787.65 512.57,-766.09"/>
<polygon fill="black" stroke="black" points="516.03,-765.51 511.36,-756 509.08,-766.35 516.03,-765.51"/>
<text text-anchor="middle" x="512.43" y="-769.56" font-family="Times,serif" font-size="14.00">N</text>
</g>
<!-- D30 -->
<g id="node13" class="node">
<title>D30</title>
<polygon fill="none" stroke="black" points="600.22,-684 236.51,-684 236.51,-648 600.22,-648 600.22,-684"/>
<text text-anchor="middle" x="418.36" y="-661.8" font-family="Times,serif" font-size="14.00">_Sensor1ResultVol = (_Sensor1Value &#45; MO_Sensor1Offset) ;</text>
</g>
<!-- D26&#45;&gt;D30 -->
<g id="edge18" class="edge">
<title>D26&#45;&gt;D30</title>
<path fill="none" stroke="black" d="M226.17,-719.97C262.43,-709.97 308.42,-697.3 346.32,-686.85"/>
<polygon fill="black" stroke="black" points="347.56,-690.14 356.27,-684.11 345.7,-683.39 347.56,-690.14"/>
</g>
<!-- D28&#45;&gt;D30 -->
<g id="edge16" class="edge">
<title>D28&#45;&gt;D30</title>
<path fill="none" stroke="black" d="M488.37,-719.7C476.55,-710.8 461.97,-699.82 449.18,-690.2"/>
<polygon fill="black" stroke="black" points="451.18,-687.32 441.09,-684.1 446.97,-692.91 451.18,-687.32"/>
</g>
<!-- D32 -->
<g id="node14" class="node">
<title>D32</title>
<polygon fill="none" stroke="black" points="644.54,-612 494.19,-612 494.19,-576 644.54,-576 644.54,-612"/>
<text text-anchor="middle" x="569.36" y="-589.8" font-family="Times,serif" font-size="14.00">_Sensor2ResultVol = 0;</text>
</g>
<!-- D30&#45;&gt;D32 -->
<g id="edge20" class="edge">
<title>D30&#45;&gt;D32</title>
<path fill="none" stroke="black" d="M455.3,-647.88C475.85,-638.35 501.61,-626.41 523.45,-616.28"/>
<polygon fill="black" stroke="black" points="524.94,-619.45 532.54,-612.07 522,-613.1 524.94,-619.45"/>
</g>
<!-- D34 -->
<g id="node15" class="node">
<title>D34</title>
<polygon fill="none" stroke="black" points="818.36,-252 764.36,-252 764.36,-216 818.36,-216 818.36,-252"/>
<text text-anchor="middle" x="791.36" y="-229.8" font-family="Times,serif" font-size="14.00">break</text>
</g>
<!-- D32&#45;&gt;D34 -->
<g id="edge21" class="edge">
<title>D32&#45;&gt;D34</title>
<path fill="none" stroke="black" d="M601.83,-575.94C640.34,-553.09 699.36,-508.66 699.36,-451 699.36,-451 699.36,-451 699.36,-377 699.36,-329.47 736.11,-285.3 763.15,-259.23"/>
<polygon fill="black" stroke="black" points="765.58,-261.76 770.49,-252.37 760.79,-256.65 765.58,-261.76"/>
</g>
<!-- D34&#45;&gt;D1 -->
<g id="edge55" class="edge">
<title>D34&#45;&gt;D1</title>
<path fill="none" stroke="black" d="M818.79,-220.08C877.45,-192.5 1019.48,-125.98 1139.36,-72 1167.48,-59.34 1199.45,-45.35 1223.46,-34.93"/>
<polygon fill="black" stroke="black" points="1225.12,-38.03 1232.9,-30.84 1222.33,-31.6 1225.12,-38.03"/>
</g>
<!-- D38 -->
<g id="node17" class="node">
<title>D38</title>
<polygon fill="none" stroke="black" points="911.36,-756 693.9,-738 911.36,-720 1128.83,-738 911.36,-756"/>
<text text-anchor="middle" x="911.36" y="-733.8" font-family="Times,serif" font-size="14.00">(sensor2_value_filtered &gt; 2000000)?</text>
</g>
<!-- D36&#45;&gt;D38 -->
<g id="edge6" class="edge">
<title>D36&#45;&gt;D38</title>
<path fill="none" stroke="black" d="M911.36,-791.7C911.36,-783.98 911.36,-774.71 911.36,-766.11"/>
<polygon fill="black" stroke="black" points="914.86,-766.1 911.36,-756.1 907.86,-766.1 914.86,-766.1"/>
</g>
<!-- D41 -->
<g id="node18" class="node">
<title>D41</title>
<polygon fill="none" stroke="black" points="946.59,-684 618.14,-684 618.14,-648 946.59,-648 946.59,-684"/>
<text text-anchor="middle" x="782.36" y="-661.8" font-family="Times,serif" font-size="14.00">_Sensor2Value = sensor2_value_filtered / 1100 * 1000;</text>
</g>
<!-- D38&#45;&gt;D41 -->
<g id="edge25" class="edge">
<title>D38:s&#45;&gt;D41:n</title>
<path fill="none" stroke="black" d="M911.36,-720C911.36,-664.43 798.93,-733.12 783.99,-694.06"/>
<polygon fill="black" stroke="black" points="787.42,-693.31 782.36,-684 780.51,-694.43 787.42,-693.31"/>
<text text-anchor="middle" x="841.88" y="-706.19" font-family="Times,serif" font-size="14.00">Y</text>
</g>
<!-- D43 -->
<g id="node19" class="node">
<title>D43</title>
<polygon fill="none" stroke="black" points="1293.59,-684 965.14,-684 965.14,-648 1293.59,-648 1293.59,-684"/>
<text text-anchor="middle" x="1129.36" y="-661.8" font-family="Times,serif" font-size="14.00">_Sensor2Value = sensor2_value_filtered * 1000 / 1100;</text>
</g>
<!-- D38&#45;&gt;D43 -->
<g id="edge27" class="edge">
<title>D38:e&#45;&gt;D43:n</title>
<path fill="none" stroke="black" d="M1130.36,-738C1151.08,-738 1135.28,-715.65 1130.57,-694.09"/>
<polygon fill="black" stroke="black" points="1134.03,-693.51 1129.36,-684 1127.08,-694.35 1134.03,-693.51"/>
<text text-anchor="middle" x="1130.43" y="-697.56" font-family="Times,serif" font-size="14.00">N</text>
</g>
<!-- D45 -->
<g id="node20" class="node">
<title>D45</title>
<polygon fill="none" stroke="black" points="1120.22,-612 756.51,-612 756.51,-576 1120.22,-576 1120.22,-612"/>
<text text-anchor="middle" x="938.36" y="-589.8" font-family="Times,serif" font-size="14.00">_Sensor2ResultVol = (_Sensor2Value &#45; MO_Sensor2Offset) ;</text>
</g>
<!-- D41&#45;&gt;D45 -->
<g id="edge26" class="edge">
<title>D41&#45;&gt;D45</title>
<path fill="none" stroke="black" d="M820.52,-647.88C841.76,-638.35 868.37,-626.41 890.93,-616.28"/>
<polygon fill="black" stroke="black" points="892.63,-619.36 900.32,-612.07 889.77,-612.97 892.63,-619.36"/>
</g>
<!-- D43&#45;&gt;D45 -->
<g id="edge24" class="edge">
<title>D43&#45;&gt;D45</title>
<path fill="none" stroke="black" d="M1082.64,-647.88C1056.06,-638.14 1022.6,-625.87 994.59,-615.61"/>
<polygon fill="black" stroke="black" points="995.53,-612.22 984.93,-612.07 993.12,-618.8 995.53,-612.22"/>
</g>
<!-- D47 -->
<g id="node21" class="node">
<title>D47</title>
<polygon fill="none" stroke="black" points="1013.54,-540 863.19,-540 863.19,-504 1013.54,-504 1013.54,-540"/>
<text text-anchor="middle" x="938.36" y="-517.8" font-family="Times,serif" font-size="14.00">_Sensor1ResultVol = 0;</text>
</g>
<!-- D45&#45;&gt;D47 -->
<g id="edge28" class="edge">
<title>D45&#45;&gt;D47</title>
<path fill="none" stroke="black" d="M938.36,-575.7C938.36,-567.98 938.36,-558.71 938.36,-550.11"/>
<polygon fill="black" stroke="black" points="941.86,-550.1 938.36,-540.1 934.86,-550.1 941.86,-550.1"/>
</g>
<!-- D49 -->
<g id="node22" class="node">
<title>D49</title>
<polygon fill="none" stroke="black" points="1097.36,-180 1043.36,-180 1043.36,-144 1097.36,-144 1097.36,-180"/>
<text text-anchor="middle" x="1070.36" y="-157.8" font-family="Times,serif" font-size="14.00">break</text>
</g>
<!-- D47&#45;&gt;D49 -->
<g id="edge29" class="edge">
<title>D47&#45;&gt;D49</title>
<path fill="none" stroke="black" d="M938.36,-503.95C938.36,-477.29 938.36,-424.11 938.36,-379 938.36,-379 938.36,-379 938.36,-305 938.36,-264.55 932.2,-247.67 957.36,-216 976.2,-192.29 1008.14,-178.67 1033.27,-171.19"/>
<polygon fill="black" stroke="black" points="1034.51,-174.48 1043.22,-168.44 1032.64,-167.73 1034.51,-174.48"/>
</g>
<!-- D49&#45;&gt;D1 -->
<g id="edge2" class="edge">
<title>D49&#45;&gt;D1</title>
<path fill="none" stroke="black" d="M1093.28,-143.87C1127.23,-118.5 1190.98,-70.85 1229.16,-42.32"/>
<polygon fill="black" stroke="black" points="1231.45,-44.98 1237.36,-36.19 1227.26,-39.37 1231.45,-44.98"/>
</g>
<!-- D53 -->
<g id="node24" class="node">
<title>D53</title>
<polygon fill="none" stroke="black" points="1677.46,-684 1311.27,-684 1311.27,-648 1677.46,-648 1677.46,-684"/>
<text text-anchor="middle" x="1494.36" y="-661.8" font-family="Times,serif" font-size="14.00">sensor2_value_filtered = getADS1252(SENSOR_SENSOR2);</text>
</g>
<!-- D51&#45;&gt;D53 -->
<g id="edge7" class="edge">
<title>D51&#45;&gt;D53</title>
<path fill="none" stroke="black" d="M1485.33,-719.7C1486.65,-711.98 1488.24,-702.71 1489.71,-694.11"/>
<polygon fill="black" stroke="black" points="1493.19,-694.55 1491.43,-684.1 1486.29,-693.37 1493.19,-694.55"/>
</g>
<!-- D55 -->
<g id="node25" class="node">
<title>D55</title>
<polygon fill="none" stroke="black" points="1391.36,-612 1173.9,-594 1391.36,-576 1608.83,-594 1391.36,-612"/>
<text text-anchor="middle" x="1391.36" y="-589.8" font-family="Times,serif" font-size="14.00">(sensor1_value_filtered &gt; 2000000)?</text>
</g>
<!-- D53&#45;&gt;D55 -->
<g id="edge31" class="edge">
<title>D53&#45;&gt;D55</title>
<path fill="none" stroke="black" d="M1469.17,-647.88C1455.03,-638.27 1437.27,-626.2 1422.29,-616.02"/>
<polygon fill="black" stroke="black" points="1424.08,-613.01 1413.84,-610.28 1420.15,-618.8 1424.08,-613.01"/>
</g>
<!-- D58 -->
<g id="node26" class="node">
<title>D58</title>
<polygon fill="none" stroke="black" points="1426.59,-540 1098.14,-540 1098.14,-504 1426.59,-504 1426.59,-540"/>
<text text-anchor="middle" x="1262.36" y="-517.8" font-family="Times,serif" font-size="14.00">_Sensor1Value = sensor1_value_filtered / 1100 * 1000;</text>
</g>
<!-- D55&#45;&gt;D58 -->
<g id="edge33" class="edge">
<title>D55:s&#45;&gt;D58:n</title>
<path fill="none" stroke="black" d="M1391.36,-576C1391.36,-520.43 1278.93,-589.12 1263.99,-550.06"/>
<polygon fill="black" stroke="black" points="1267.42,-549.31 1262.36,-540 1260.51,-550.43 1267.42,-549.31"/>
<text text-anchor="middle" x="1321.88" y="-562.19" font-family="Times,serif" font-size="14.00">Y</text>
</g>
<!-- D60 -->
<g id="node27" class="node">
<title>D60</title>
<polygon fill="none" stroke="black" points="1773.59,-540 1445.14,-540 1445.14,-504 1773.59,-504 1773.59,-540"/>
<text text-anchor="middle" x="1609.36" y="-517.8" font-family="Times,serif" font-size="14.00">_Sensor1Value = sensor1_value_filtered * 1000 / 1100;</text>
</g>
<!-- D55&#45;&gt;D60 -->
<g id="edge35" class="edge">
<title>D55:e&#45;&gt;D60:n</title>
<path fill="none" stroke="black" d="M1610.36,-594C1631.08,-594 1615.28,-571.65 1610.57,-550.09"/>
<polygon fill="black" stroke="black" points="1614.03,-549.51 1609.36,-540 1607.08,-550.35 1614.03,-549.51"/>
<text text-anchor="middle" x="1610.43" y="-553.56" font-family="Times,serif" font-size="14.00">N</text>
</g>
<!-- D62 -->
<g id="node28" class="node">
<title>D62</title>
<polygon fill="none" stroke="black" points="1275.36,-468 1057.9,-450 1275.36,-432 1492.83,-450 1275.36,-468"/>
<text text-anchor="middle" x="1275.36" y="-445.8" font-family="Times,serif" font-size="14.00">(sensor2_value_filtered &gt; 2000000)?</text>
</g>
<!-- D58&#45;&gt;D62 -->
<g id="edge34" class="edge">
<title>D58&#45;&gt;D62</title>
<path fill="none" stroke="black" d="M1265.58,-503.7C1267.01,-495.98 1268.73,-486.71 1270.33,-478.11"/>
<polygon fill="black" stroke="black" points="1273.8,-478.58 1272.19,-468.1 1266.92,-477.3 1273.8,-478.58"/>
</g>
<!-- D60&#45;&gt;D62 -->
<g id="edge32" class="edge">
<title>D60&#45;&gt;D62</title>
<path fill="none" stroke="black" d="M1528.08,-503.97C1471.58,-492.12 1397.1,-476.51 1343.66,-465.31"/>
<polygon fill="black" stroke="black" points="1344.11,-461.83 1333.6,-463.21 1342.67,-468.68 1344.11,-461.83"/>
</g>
<!-- D65 -->
<g id="node29" class="node">
<title>D65</title>
<polygon fill="none" stroke="black" points="1326.59,-396 998.14,-396 998.14,-360 1326.59,-360 1326.59,-396"/>
<text text-anchor="middle" x="1162.36" y="-373.8" font-family="Times,serif" font-size="14.00">_Sensor2Value = sensor2_value_filtered / 1100 * 1000;</text>
</g>
<!-- D62&#45;&gt;D65 -->
<g id="edge37" class="edge">
<title>D62:s&#45;&gt;D65:n</title>
<path fill="none" stroke="black" d="M1275.36,-432C1275.36,-383.41 1179.33,-438.61 1164.32,-406.23"/>
<polygon fill="black" stroke="black" points="1167.68,-405.16 1162.36,-396 1160.81,-406.48 1167.68,-405.16"/>
<text text-anchor="middle" x="1213.71" y="-418.21" font-family="Times,serif" font-size="14.00">Y</text>
</g>
<!-- D67 -->
<g id="node30" class="node">
<title>D67</title>
<polygon fill="none" stroke="black" points="1673.59,-396 1345.14,-396 1345.14,-360 1673.59,-360 1673.59,-396"/>
<text text-anchor="middle" x="1509.36" y="-373.8" font-family="Times,serif" font-size="14.00">_Sensor2Value = sensor2_value_filtered * 1000 / 1100;</text>
</g>
<!-- D62&#45;&gt;D67 -->
<g id="edge39" class="edge">
<title>D62:e&#45;&gt;D67:n</title>
<path fill="none" stroke="black" d="M1494.36,-450C1515.96,-450 1511.38,-428.12 1509.78,-406.07"/>
<polygon fill="black" stroke="black" points="1513.28,-405.85 1509.36,-396 1506.28,-406.14 1513.28,-405.85"/>
<text text-anchor="middle" x="1506.06" y="-426.92" font-family="Times,serif" font-size="14.00">N</text>
</g>
<!-- D69 -->
<g id="node31" class="node">
<title>D69</title>
<polygon fill="none" stroke="black" points="1440.22,-324 1080.51,-324 1080.51,-288 1440.22,-288 1440.22,-324"/>
<text text-anchor="middle" x="1260.36" y="-301.8" font-family="Times,serif" font-size="14.00">_Sensor1ResultVol = (_Sensor1Value &#45; MO_Sensor1Offset);</text>
</g>
<!-- D65&#45;&gt;D69 -->
<g id="edge38" class="edge">
<title>D65&#45;&gt;D69</title>
<path fill="none" stroke="black" d="M1186.34,-359.88C1198.91,-350.89 1214.49,-339.76 1228.11,-330.03"/>
<polygon fill="black" stroke="black" points="1230.19,-332.85 1236.3,-324.19 1226.12,-327.15 1230.19,-332.85"/>
</g>
<!-- D67&#45;&gt;D69 -->
<g id="edge36" class="edge">
<title>D67&#45;&gt;D69</title>
<path fill="none" stroke="black" d="M1448.77,-359.97C1413.22,-349.97 1368.14,-337.3 1330.98,-326.85"/>
<polygon fill="black" stroke="black" points="1331.8,-323.45 1321.23,-324.11 1329.91,-330.19 1331.8,-323.45"/>
</g>
<!-- D71 -->
<g id="node32" class="node">
<title>D71</title>
<polygon fill="none" stroke="black" points="1554.09,-252 966.63,-252 966.63,-216 1554.09,-216 1554.09,-252"/>
<text text-anchor="middle" x="1260.36" y="-229.8" font-family="Times,serif" font-size="14.00">_Sensor2ResultVol = (_Sensor2Value &#45; MO_Sensor2Offset) * 1000 / (int)MO_SensorFullScaleRatio;</text>
</g>
<!-- D69&#45;&gt;D71 -->
<g id="edge40" class="edge">
<title>D69&#45;&gt;D71</title>
<path fill="none" stroke="black" d="M1260.36,-287.7C1260.36,-279.98 1260.36,-270.71 1260.36,-262.11"/>
<polygon fill="black" stroke="black" points="1263.86,-262.1 1260.36,-252.1 1256.86,-262.1 1263.86,-262.1"/>
</g>
<!-- D73 -->
<g id="node33" class="node">
<title>D73</title>
<polygon fill="none" stroke="black" points="1287.36,-108 1233.36,-108 1233.36,-72 1287.36,-72 1287.36,-108"/>
<text text-anchor="middle" x="1260.36" y="-85.8" font-family="Times,serif" font-size="14.00">break</text>
</g>
<!-- D71&#45;&gt;D73 -->
<g id="edge41" class="edge">
<title>D71&#45;&gt;D73</title>
<path fill="none" stroke="black" d="M1260.36,-215.87C1260.36,-191.67 1260.36,-147.21 1260.36,-118.39"/>
<polygon fill="black" stroke="black" points="1263.86,-118.19 1260.36,-108.19 1256.86,-118.19 1263.86,-118.19"/>
</g>
<!-- D73&#45;&gt;D1 -->
<g id="edge4" class="edge">
<title>D73&#45;&gt;D1</title>
<path fill="none" stroke="black" d="M1260.36,-71.7C1260.36,-63.98 1260.36,-54.71 1260.36,-46.11"/>
<polygon fill="black" stroke="black" points="1263.86,-46.1 1260.36,-36.1 1256.86,-46.1 1263.86,-46.1"/>
</g>
<!-- D77 -->
<g id="node35" class="node">
<title>D77</title>
<polygon fill="none" stroke="black" points="2201.46,-612 1835.27,-612 1835.27,-576 2201.46,-576 2201.46,-612"/>
<text text-anchor="middle" x="2018.36" y="-589.8" font-family="Times,serif" font-size="14.00">sensor2_value_filtered = getADS1252(SENSOR_SENSOR2);</text>
</g>
<!-- D75&#45;&gt;D77 -->
<g id="edge8" class="edge">
<title>D75&#45;&gt;D77</title>
<path fill="none" stroke="black" d="M2031.91,-647.7C2029.91,-639.9 2027.49,-630.51 2025.26,-621.83"/>
<polygon fill="black" stroke="black" points="2028.64,-620.92 2022.76,-612.1 2021.86,-622.66 2028.64,-620.92"/>
</g>
<!-- D79 -->
<g id="node36" class="node">
<title>D79</title>
<polygon fill="none" stroke="black" points="2009.36,-540 1791.9,-522 2009.36,-504 2226.83,-522 2009.36,-540"/>
<text text-anchor="middle" x="2009.36" y="-517.8" font-family="Times,serif" font-size="14.00">(sensor1_value_filtered &gt; 2000000)?</text>
</g>
<!-- D77&#45;&gt;D79 -->
<g id="edge43" class="edge">
<title>D77&#45;&gt;D79</title>
<path fill="none" stroke="black" d="M2016.14,-575.7C2015.15,-567.98 2013.95,-558.71 2012.85,-550.11"/>
<polygon fill="black" stroke="black" points="2016.31,-549.58 2011.56,-540.1 2009.36,-550.47 2016.31,-549.58"/>
</g>
<!-- D82 -->
<g id="node37" class="node">
<title>D82</title>
<polygon fill="none" stroke="black" points="2041.59,-468 1713.14,-468 1713.14,-432 2041.59,-432 2041.59,-468"/>
<text text-anchor="middle" x="1877.36" y="-445.8" font-family="Times,serif" font-size="14.00">_Sensor1Value = sensor1_value_filtered / 1100 * 1000;</text>
</g>
<!-- D79&#45;&gt;D82 -->
<g id="edge45" class="edge">
<title>D79:s&#45;&gt;D82:n</title>
<path fill="none" stroke="black" d="M2009.36,-504C2009.36,-447.23 1894.31,-518.08 1879.03,-478.26"/>
<polygon fill="black" stroke="black" points="1882.42,-477.31 1877.36,-468 1875.51,-478.43 1882.42,-477.31"/>
<text text-anchor="middle" x="1938.38" y="-490.19" font-family="Times,serif" font-size="14.00">Y</text>
</g>
<!-- D84 -->
<g id="node38" class="node">
<title>D84</title>
<polygon fill="none" stroke="black" points="2388.59,-468 2060.14,-468 2060.14,-432 2388.59,-432 2388.59,-468"/>
<text text-anchor="middle" x="2224.36" y="-445.8" font-family="Times,serif" font-size="14.00">_Sensor1Value = sensor1_value_filtered * 1000 / 1100;</text>
</g>
<!-- D79&#45;&gt;D84 -->
<g id="edge47" class="edge">
<title>D79:e&#45;&gt;D84:n</title>
<path fill="none" stroke="black" d="M2228.36,-522C2236.37,-522 2227.92,-511.99 2227.36,-504 2226.53,-491.99 2225.26,-486.77 2224.67,-478.15"/>
<polygon fill="black" stroke="black" points="2228.17,-477.89 2224.36,-468 2221.17,-478.1 2228.17,-477.89"/>
<text text-anchor="middle" x="2221.52" y="-482.65" font-family="Times,serif" font-size="14.00">N</text>
</g>
<!-- D86 -->
<g id="node39" class="node">
<title>D86</title>
<polygon fill="none" stroke="black" points="1961.36,-396 1743.9,-378 1961.36,-360 2178.83,-378 1961.36,-396"/>
<text text-anchor="middle" x="1961.36" y="-373.8" font-family="Times,serif" font-size="14.00">(sensor2_value_filtered &gt; 2000000)?</text>
</g>
<!-- D82&#45;&gt;D86 -->
<g id="edge46" class="edge">
<title>D82&#45;&gt;D86</title>
<path fill="none" stroke="black" d="M1898.13,-431.7C1909.18,-422.49 1922.89,-411.06 1934.72,-401.2"/>
<polygon fill="black" stroke="black" points="1937.11,-403.76 1942.56,-394.67 1932.63,-398.38 1937.11,-403.76"/>
</g>
<!-- D84&#45;&gt;D86 -->
<g id="edge44" class="edge">
<title>D84&#45;&gt;D86</title>
<path fill="none" stroke="black" d="M2160.36,-431.97C2117.57,-420.58 2061.69,-405.7 2020.05,-394.62"/>
<polygon fill="black" stroke="black" points="2020.88,-391.22 2010.32,-392.03 2019.08,-397.98 2020.88,-391.22"/>
</g>
<!-- D89 -->
<g id="node40" class="node">
<title>D89</title>
<polygon fill="none" stroke="black" points="2015.59,-324 1687.14,-324 1687.14,-288 2015.59,-288 2015.59,-324"/>
<text text-anchor="middle" x="1851.36" y="-301.8" font-family="Times,serif" font-size="14.00">_Sensor2Value = sensor2_value_filtered / 1100 * 1000;</text>
</g>
<!-- D86&#45;&gt;D89 -->
<g id="edge49" class="edge">
<title>D86:s&#45;&gt;D89:n</title>
<path fill="none" stroke="black" d="M1961.36,-360C1961.36,-312.58 1867.88,-365.71 1853.27,-334"/>
<polygon fill="black" stroke="black" points="1856.67,-333.17 1851.36,-324 1849.8,-334.48 1856.67,-333.17"/>
<text text-anchor="middle" x="1901.22" y="-346.21" font-family="Times,serif" font-size="14.00">Y</text>
</g>
<!-- D91 -->
<g id="node41" class="node">
<title>D91</title>
<polygon fill="none" stroke="black" points="2362.59,-324 2034.14,-324 2034.14,-288 2362.59,-288 2362.59,-324"/>
<text text-anchor="middle" x="2198.36" y="-301.8" font-family="Times,serif" font-size="14.00">_Sensor2Value = sensor2_value_filtered * 1000 / 1100;</text>
</g>
<!-- D86&#45;&gt;D91 -->
<g id="edge51" class="edge">
<title>D86:e&#45;&gt;D91:n</title>
<path fill="none" stroke="black" d="M2180.36,-378C2202.3,-378 2199.73,-356.42 2198.65,-334.18"/>
<polygon fill="black" stroke="black" points="2202.15,-333.9 2198.36,-324 2195.15,-334.1 2202.15,-333.9"/>
<text text-anchor="middle" x="2194.28" y="-355.09" font-family="Times,serif" font-size="14.00">N</text>
</g>
<!-- D93 -->
<g id="node42" class="node">
<title>D93</title>
<polygon fill="none" stroke="black" points="2160.09,-252 1572.63,-252 1572.63,-216 2160.09,-216 2160.09,-252"/>
<text text-anchor="middle" x="1866.36" y="-229.8" font-family="Times,serif" font-size="14.00">_Sensor1ResultVol = (_Sensor1Value &#45; MO_Sensor1Offset) * 1000 / (int)MO_SensorFullScaleRatio;</text>
</g>
<!-- D89&#45;&gt;D93 -->
<g id="edge50" class="edge">
<title>D89&#45;&gt;D93</title>
<path fill="none" stroke="black" d="M1855.07,-287.7C1856.72,-279.98 1858.71,-270.71 1860.55,-262.11"/>
<polygon fill="black" stroke="black" points="1864.02,-262.62 1862.7,-252.1 1857.18,-261.15 1864.02,-262.62"/>
</g>
<!-- D91&#45;&gt;D93 -->
<g id="edge48" class="edge">
<title>D91&#45;&gt;D93</title>
<path fill="none" stroke="black" d="M2117.57,-287.97C2069.08,-277.74 2007.27,-264.71 1957.1,-254.13"/>
<polygon fill="black" stroke="black" points="1957.73,-250.69 1947.23,-252.05 1956.29,-257.54 1957.73,-250.69"/>
</g>
<!-- D95 -->
<g id="node43" class="node">
<title>D95</title>
<polygon fill="none" stroke="black" points="1847.22,-180 1487.51,-180 1487.51,-144 1847.22,-144 1847.22,-180"/>
<text text-anchor="middle" x="1667.36" y="-157.8" font-family="Times,serif" font-size="14.00">_Sensor2ResultVol = (_Sensor2Value &#45; MO_Sensor2Offset);</text>
</g>
<!-- D93&#45;&gt;D95 -->
<g id="edge52" class="edge">
<title>D93&#45;&gt;D95</title>
<path fill="none" stroke="black" d="M1817.94,-215.97C1790.13,-206.19 1755.03,-193.84 1725.71,-183.52"/>
<polygon fill="black" stroke="black" points="1726.6,-180.13 1716.01,-180.11 1724.28,-186.73 1726.6,-180.13"/>
</g>
<!-- D97 -->
<g id="node44" class="node">
<title>D97</title>
<polygon fill="none" stroke="black" points="1526.36,-108 1472.36,-108 1472.36,-72 1526.36,-72 1526.36,-108"/>
<text text-anchor="middle" x="1499.36" y="-85.8" font-family="Times,serif" font-size="14.00">break</text>
</g>
<!-- D95&#45;&gt;D97 -->
<g id="edge53" class="edge">
<title>D95&#45;&gt;D97</title>
<path fill="none" stroke="black" d="M1626.26,-143.88C1598.58,-132.34 1562.39,-117.26 1535.75,-106.16"/>
<polygon fill="black" stroke="black" points="1536.98,-102.88 1526.4,-102.27 1534.29,-109.34 1536.98,-102.88"/>
</g>
<!-- D97&#45;&gt;D1 -->
<g id="edge14" class="edge">
<title>D97&#45;&gt;D1</title>
<path fill="none" stroke="black" d="M1471.95,-80.97C1428.9,-68.36 1345.43,-43.91 1297.19,-29.79"/>
<polygon fill="black" stroke="black" points="1298.04,-26.39 1287.46,-26.94 1296.07,-33.11 1298.04,-26.39"/>
</g>
<!-- D101 -->
<g id="node46" class="node">
<title>D101</title>
<polygon fill="none" stroke="black" points="2010.36,-108 1956.36,-108 1956.36,-72 2010.36,-72 2010.36,-108"/>
<text text-anchor="middle" x="1983.36" y="-85.8" font-family="Times,serif" font-size="14.00">break</text>
</g>
<!-- D99&#45;&gt;D101 -->
<g id="edge9" class="edge">
<title>D99&#45;&gt;D101</title>
<path fill="none" stroke="black" d="M2413.95,-647.95C2414.83,-621.3 2416.36,-568.12 2416.36,-523 2416.36,-523 2416.36,-523 2416.36,-233 2416.36,-150.01 2125.56,-107.68 2020.59,-95.1"/>
<polygon fill="black" stroke="black" points="2020.79,-91.6 2010.45,-93.91 2019.97,-98.55 2020.79,-91.6"/>
</g>
<!-- D101&#45;&gt;D1 -->
<g id="edge5" class="edge">
<title>D101&#45;&gt;D1</title>
<path fill="none" stroke="black" d="M1956.34,-86.38C1845.5,-75.65 1425.58,-35 1297.61,-22.61"/>
<polygon fill="black" stroke="black" points="1297.81,-19.11 1287.52,-21.63 1297.14,-26.08 1297.81,-19.11"/>
</g>
</g>
</svg>
